<svg id="background" xmlns="http://www.w3.org/2000/svg" xmlns:xlink="http://www.w3.org/1999/xlink" viewBox="0 0 1200 1200">
  <defs>
  <style>
  .cls-1 {
    fill: url(#radial-gradient);
  }

  .cls-2 {
    fill: #17638a;
  }

  .cls-3 {
    fill: #03324c;
  }

  .cls-4 {
    fill: #19638b;
  }

  .cls-5 {
    fill: url(#radial-gradient-2);
  }

  .cls-6 {
    fill: url(#radial-gradient-3);
  }

  .cls-7 {
    fill: url(#radial-gradient-4);
  }

  .cls-8 {
    fill: url(#radial-gradient-5);
  }

  .cls-9 {
    fill: url(#radial-gradient-6);
  }

  .cls-10 {
    fill: url(#radial-gradient-7);
  }

  .cls-11 {
    fill: url(#radial-gradient-8);
  }

  .cls-12 {
    fill: url(#radial-gradient-9);
  }

  .cls-13 {
    fill: url(#radial-gradient-10);
  }

  .cls-14 {
    fill: url(#radial-gradient-11);
  }
</style>
    <radialGradient id="radial-gradient" cx="387.33" cy="7.44" r="1559.15" gradientTransform="translate(196.17 -2.94) scale(0.67 1.01)" gradientUnits="userSpaceOnUse">
      <stop offset="0" stop-color="#6dcbda"/>
      <stop offset="0.34" stop-color="#269aba"/>
      <stop offset="0.66" stop-color="#2979a1"/>
      <stop offset="0.8" stop-color="#226998"/>
      <stop offset="1" stop-color="#19558c"/>
    </radialGradient>
    <radialGradient id="radial-gradient-2" cx="-342.92" cy="827.87" r="2675.65" gradientTransform="translate(0 0)" gradientUnits="userSpaceOnUse">
      <stop offset="0" stop-color="#8bd4e1"/>
      <stop offset="0.34" stop-color="#2ebbd3"/>
      <stop offset="0.54" stop-color="#30abc9"/>
      <stop offset="0.66" stop-color="#329fc2"/>
      <stop offset="0.87" stop-color="#267fb9"/>
      <stop offset="1" stop-color="#2071b5"/>
    </radialGradient>
    <radialGradient id="radial-gradient-3" cx="112.58" cy="842.67" r="2675.65" xlink:href="#radial-gradient-2"/>
    <radialGradient id="radial-gradient-4" cx="-935.93" cy="1548.6" r="5736.98" xlink:href="#radial-gradient-2"/>
    <radialGradient id="radial-gradient-5" cx="-173.84" cy="1310.49" r="4502.13" xlink:href="#radial-gradient-2"/>
    <radialGradient id="radial-gradient-6" cx="50.62" cy="1006.21" r="4475.6" xlink:href="#radial-gradient-2"/>
    <radialGradient id="radial-gradient-7" cx="68.57" cy="445.06" r="1403.77" xlink:href="#radial-gradient-2"/>
    <radialGradient id="radial-gradient-8" cx="-311.7" cy="1767.99" r="5736.98" gradientTransform="translate(468.62 288.61) scale(0.47 0.57)" xlink:href="#radial-gradient-2"/>
    <radialGradient id="radial-gradient-9" cx="-361.53" cy="1364.7" r="3254.38" xlink:href="#radial-gradient-2"/>
    <radialGradient id="radial-gradient-10" cx="-677.99" cy="783.33" r="3694.22" xlink:href="#radial-gradient-2"/>
    <radialGradient id="radial-gradient-11" cx="-59.72" cy="778.33" r="3563.1" xlink:href="#radial-gradient-2"/>
  </defs>
  <rect class="cls-1" x="0" width="100%" height="100%"/>
  <g>
    <g>
      <path class="cls-2" d="M32.82,757a2.74,2.74,0,0,1,0,.28l0,.35Z" transform="translate(0.73 -0.18)"/>
      <path class="cls-2" d="M33.81,800.74l.12.31.12.25Z" transform="translate(0.73 -0.18)"/>
      <path class="cls-2" d="M27.53,774.21c0-.06.1-.13.16-.19l.21-.29Z" transform="translate(0.73 -0.18)"/>
      <path class="cls-2" d="M32,797.84c.07.08.12.17.18.25s.14.15.2.23Z" transform="translate(0.73 -0.18)"/>
      <path class="cls-2" d="M29.53,795.55l.26.21a1.88,1.88,0,0,0,.23.16Z" transform="translate(0.73 -0.18)"/>
      <path class="cls-2" d="M29.13,764.89l-.22.27-.16.21Z" transform="translate(0.73 -0.18)"/>
      <path class="cls-2" d="M32,760.06c-.05.11-.1.21-.14.31l-.11.26Z" transform="translate(0.73 -0.18)"/>
      <path class="cls-2" d="M26.47,788.39a2.43,2.43,0,0,1-.25-.2L26,788Z" transform="translate(0.73 -0.18)"/>
      <path class="cls-2" d="M25.31,787.38c-.07-.08-.12-.16-.18-.24s-.14-.15-.2-.23C25.05,787.07,25.18,787.22,25.31,787.38Z" transform="translate(0.73 -0.18)"/>
      <path class="cls-2" d="M24.64,778.93l.16-.34c0-.07.05-.15.08-.22Z" transform="translate(0.73 -0.18)"/>
      <path class="cls-2" d="M23.89,781.94a2.93,2.93,0,0,1,.05-.29l0-.34Z" transform="translate(0.73 -0.18)"/>
      <path class="cls-2" d="M24.51,786.18a2.44,2.44,0,0,1-.1-.24l-.15-.32Z" transform="translate(0.73 -0.18)"/>
      <path class="cls-2" d="M24,784.42a2.29,2.29,0,0,1,0-.25c0-.13-.05-.25-.07-.38Z" transform="translate(0.73 -0.18)"/>
      <path class="cls-2" d="M27.9,828.08c0-.11-.09-.23-.14-.34a1.51,1.51,0,0,0-.11-.22Z" transform="translate(0.73 -0.18)"/>
      <path class="cls-2" d="M27.5,826.93a2.11,2.11,0,0,1,0-.26c0-.12-.05-.24-.07-.37Z" transform="translate(0.73 -0.18)"/>
      <path class="cls-2" d="M27.79,824l.11-.22.13-.34Z" transform="translate(0.73 -0.18)"/>
      <path class="cls-2" d="M27.42,825.58c0-.1,0-.2.06-.3a1.84,1.84,0,0,1,0-.33Z" transform="translate(0.73 -0.18)"/>
      <path class="cls-2" d="M34.1,793.17a19.27,19.27,0,0,0-3.85-2.72,36.13,36.13,0,0,1-4-2.26,2.43,2.43,0,0,0,.25.2L26,788l.24.17a9,9,0,0,1-1.09-1.05c.06.08.11.16.18.24-.13-.16-.26-.31-.38-.47.06.08.13.15.2.23a8.11,8.11,0,0,1-.72-1.2,2.44,2.44,0,0,0,.1.24l-.25-.56.15.32a9.28,9.28,0,0,1-.48-1.77,2.29,2.29,0,0,0,0,.25l-.09-.63c0,.13,0,.25.07.38a11.79,11.79,0,0,1,0-2.52,2.93,2.93,0,0,0-.05.29l.08-.63,0,.34a14.22,14.22,0,0,1,.86-3.06l-.16.34.24-.56c0,.07-.05.15-.08.22A23.18,23.18,0,0,1,27.69,774c-.06.06-.11.13-.16.19l.37-.48-.21.29c3.56-4.45,7.93-8.52,9.47-14.16a13.15,13.15,0,0,0,.43-5,2.61,2.61,0,0,0-.71-1.67,2.47,2.47,0,0,0-1.71-.69,2.41,2.41,0,0,0-1.71.69,2.28,2.28,0,0,0-.71,1.67,10.29,10.29,0,0,1,0,2.48,2.74,2.74,0,0,0,0-.28l-.08.63,0-.35a14.27,14.27,0,0,1-.88,3.06c0-.1.09-.2.14-.31l-.25.57.11-.26a24.73,24.73,0,0,1-3,4.79l.22-.27-.38.48.16-.21c-3.25,4.05-7.17,7.73-9,12.68-1.67,4.58-1.2,10.44,2.86,13.7A21.86,21.86,0,0,0,26.68,794a24.71,24.71,0,0,1,3.11,1.81l-.26-.21.49.37a1.88,1.88,0,0,1-.23-.16,15.76,15.76,0,0,1,2.36,2.33c-.06-.08-.11-.17-.18-.25l.38.48c-.06-.08-.13-.15-.2-.23a15.93,15.93,0,0,1,1.78,3l-.12-.31.24.56-.12-.25a14.52,14.52,0,0,1,.88,3.09c0-.11,0-.22,0-.33l.09.63c0-.1,0-.2,0-.3a12.75,12.75,0,0,1,0,2.62l.06-.32-.09.63c0-.1,0-.21,0-.31a10.79,10.79,0,0,1-.59,2.14c0-.09.09-.17.12-.26l-.24.56.12-.3a12.27,12.27,0,0,1-1.36,2.21l.16-.17-.38.48c.08-.1.15-.21.22-.31-2.11,2.56-4.88,4.5-7,7.07a14.21,14.21,0,0,0-2.9,5.13,9.86,9.86,0,0,0-.06,5.06,7.82,7.82,0,0,0,3.52,4.8,2.46,2.46,0,0,0,3.3-.84,2.38,2.38,0,0,0-.86-3.24l-.16-.1.21.19-.48-.37.27.18a4.45,4.45,0,0,1-.49-.48c.05.07.09.15.15.22l-.38-.47.23.25a8.69,8.69,0,0,1-.46-.77c0,.11.09.23.14.34l-.25-.56a1.51,1.51,0,0,1,.11.22,7.64,7.64,0,0,1-.28-1.07,2.11,2.11,0,0,0,0,.26l-.09-.63c0,.13,0,.25.07.37a7.17,7.17,0,0,1,0-1.39c0,.1-.05.2-.06.3l.09-.63a1.84,1.84,0,0,0,0,.33,7.67,7.67,0,0,1,.42-1.49l-.11.22.24-.56-.13.34a12.68,12.68,0,0,1,1.34-2.2l-.19.23.38-.48c-.07.08-.12.16-.19.25,1.81-2.2,4.09-3.94,6.05-6a14.83,14.83,0,0,0,4.2-7.64,15.21,15.21,0,0,0-.82-8A18.44,18.44,0,0,0,34.1,793.17Z" transform="translate(0.73 -0.18)"/>
      <path class="cls-2" d="M29.05,821.82l.19-.23c.07-.09.12-.17.19-.25Z" transform="translate(0.73 -0.18)"/>
      <path class="cls-2" d="M34.34,808.64c0,.09-.08.17-.12.26l-.12.3Z" transform="translate(0.73 -0.18)"/>
      <path class="cls-2" d="M34.87,806.44l-.06.32c0,.1,0,.21,0,.31Z" transform="translate(0.73 -0.18)"/>
      <path class="cls-2" d="M34.77,803.81c0,.11,0,.22,0,.33s0,.2,0,.3Z" transform="translate(0.73 -0.18)"/>
      <path class="cls-2" d="M28.92,829.18l-.21-.19-.27-.18Z" transform="translate(0.73 -0.18)"/>
      <path class="cls-2" d="M28.37,828.73c-.06-.07-.1-.15-.15-.22l-.23-.25Z" transform="translate(0.73 -0.18)"/>
      <path class="cls-2" d="M33,810.94l-.16.17c-.07.1-.14.21-.22.31Z" transform="translate(0.73 -0.18)"/>
      <path class="cls-2" d="M42.87,751.67c.07.46,0-.41,0,0Z" transform="translate(0.73 -0.18)"/>
      <path class="cls-2" d="M41.21,778.78c.13-.36.08-.36,0-.22a1.16,1.16,0,0,1,0,.18Z" transform="translate(0.73 -0.18)"/>
      <path class="cls-2" d="M46.47,788.35c-.92-.85-1.84-1.71-2.68-2.64L43.2,785l0,0,.09.12c.17.22-.36-.44-.18-.23l.09.11-.23-.3a11.88,11.88,0,0,1-.93-1.48,3.17,3.17,0,0,1-.21-.41l0-.1.08.2a2.07,2.07,0,0,1-.08-.21c-.08-.17-.14-.36,0,0h0c-.09-.22-.17-.44-.24-.67a8.12,8.12,0,0,1-.22-.81,2.33,2.33,0,0,0-.08-.46.28.28,0,0,0,0,.09,1.8,1.8,0,0,0,0,.22l0-.34a0,0,0,0,0,0,0,2.45,2.45,0,0,1,0-.27,9.93,9.93,0,0,1,0-1.22c0-.15,0-.31,0-.47v0a.22.22,0,0,0,0-.08.11.11,0,0,0,0,0,1,1,0,0,0,0-.22,16,16,0,0,1,.67-2.46c.13-.37.27-.74.42-1.1l.09-.21,0,.08s.22-.53.07-.15l0,.07.27-.61c.36-.78.74-1.55,1.12-2.33a49.91,49.91,0,0,0,2.29-5.25,33.28,33.28,0,0,0,.16-21.33c-.27-.81-.58-1.6-.91-2.39a2.67,2.67,0,0,0-1.11-1.41,2.51,2.51,0,0,0-1.86-.24A2.46,2.46,0,0,0,41,742.23a2.21,2.21,0,0,0-.24,1.82,30.08,30.08,0,0,1,1.65,5c.21.86.37,1.72.5,2.58v0c0-.41.07.46,0,0v.07c0,.22,0,.45.07.67,0,.45.08.9.11,1.35a30.68,30.68,0,0,1-.13,5.25c0,.15,0,.29,0,.44v0s0,0,0,.06a.49.49,0,0,1,0,.12s0,0,0,.07,0,0,0,0c-.07.45-.14.89-.23,1.33-.17.86-.38,1.72-.62,2.56s-.53,1.68-.84,2.5c-.08.18-.15.37-.23.55a.58.58,0,0,1-.05.14h0v0l0,.13c-.15.36,0-.05,0-.13h0a3.24,3.24,0,0,0-.27.6c-.09.21-.19.41-.29.61-.82,1.74-1.69,3.45-2.44,5.22-1.38,3.25-2.14,6.91-.93,10.33,1.81,5.18,6.64,8.14,10.21,12.05.21.22.41.45.6.68l.1.11c-.06-.07,0,0,0,0a1.33,1.33,0,0,1,.19.24l-.19-.24,0,0,0,0,.15.21a15,15,0,0,1,1,1.54l.35.69-.08-.18c-.1-.27.28.6.1.23a.08.08,0,0,1,0,0h0l.18.5a8.68,8.68,0,0,1,.27,1c0,.15.06.31.09.46v0c0-.41,0,.12,0,.17a.59.59,0,0,1,0-.14l0,.42c0,.41,0,.81,0,1.22,0,.2,0,.4,0,.61,0,.06-.09.53,0,.16,0-.15.06-.31,0,0v0a1,1,0,0,0,0,.12,17.22,17.22,0,0,1-.68,2.63c-.14.43-.29.84-.46,1.26,0,.08-.06.21-.11.33s0,.14-.12.25a.58.58,0,0,0,.12-.25.58.58,0,0,0-.07.12c-.06.14-.12.28-.19.42-.37.82-.78,1.62-1.18,2.42-1.7,3.35-3.44,6.75-3.75,10.54a11.79,11.79,0,0,0,3,9.1,9.27,9.27,0,0,0,2,1.53,2.47,2.47,0,0,0,3.3-.85,2.37,2.37,0,0,0-.86-3.23l-.41-.26-.06,0,0,0c.08.07.31.24,0,0s-.12-.09,0,0a5.44,5.44,0,0,1-.73-.71l-.06-.06.06.09c.17.23-.35-.42-.16-.2a.52.52,0,0,1,.1.11l-.24-.34a9.27,9.27,0,0,1-.51-.92v0c.13.34-.09-.22-.1-.24a1.14,1.14,0,0,1,.09.19l-.15-.4a9.44,9.44,0,0,1-.29-1,2.56,2.56,0,0,1,0-.27.35.35,0,0,1,0-.18.17.17,0,0,1,0-.07l0-.19s0,.07,0,.11c0-.31-.05-.62-.06-.94s0-.69,0-1c0-.14,0-.27,0-.41a1.21,1.21,0,0,1,0,.14,1.55,1.55,0,0,0,0-.21v-.06a.65.65,0,0,1,0-.18,17,17,0,0,1,.64-2.4q.2-.57.42-1.14s.11-.2.17-.33c0,.06-.06.06,0-.08l.06-.14h0l.12-.28c.37-.79.75-1.57,1.15-2.35,1.77-3.5,3.53-7,3.86-11a12.78,12.78,0,0,0-2.68-8.77A45.39,45.39,0,0,0,46.47,788.35Z" transform="translate(0.73 -0.18)"/>
      <path class="cls-2" d="M42.4,774.78l0-.08,0-.07C42.62,774.25,42.42,774.74,42.4,774.78Z" transform="translate(0.73 -0.18)"/>
      <path class="cls-2" d="M43.25,785.09l-.09-.12-.09-.11C42.89,784.65,43.42,785.31,43.25,785.09Z" transform="translate(0.73 -0.18)"/>
      <path class="cls-2" d="M48.3,823.37a1.77,1.77,0,0,0,0,.2s0-.09-.06-.33v.13Z" transform="translate(0.73 -0.18)"/>
      <path class="cls-2" d="M41.82,782.88l-.08-.2h0A2.07,2.07,0,0,0,41.82,782.88Z" transform="translate(0.73 -0.18)"/>
      <path class="cls-2" d="M41.23,781.05a1.8,1.8,0,0,1,0-.22.28.28,0,0,1,0-.09,0,0,0,0,1,0,0Z" transform="translate(0.73 -0.18)"/>
      <path class="cls-2" d="M50.39,827.36c.32.24.09.07,0,0l0,0C50.27,827.27,50.1,827.14,50.39,827.36Z" transform="translate(0.73 -0.18)"/>
      <path class="cls-2" d="M48.84,825.33v-.05a1.14,1.14,0,0,0-.09-.19S49,825.67,48.84,825.33Z" transform="translate(0.73 -0.18)"/>
      <path class="cls-2" d="M49.3,798.69l.08.18a.08.08,0,0,0,0,0C49.58,799.29,49.2,798.42,49.3,798.69Z" transform="translate(0.73 -0.18)"/>
      <path class="cls-2" d="M48.29,820.79v.07a2.45,2.45,0,0,0,0-.31l0,.16S48.29,820.76,48.29,820.79Z" transform="translate(0.73 -0.18)"/>
      <path class="cls-2" d="M49.91,800.81v0a.59.59,0,0,0,0,.14C49.93,800.93,49.88,800.4,49.91,800.81Z" transform="translate(0.73 -0.18)"/>
      <path class="cls-2" d="M49.89,803.25v0C50,802.94,49.92,803.1,49.89,803.25Z" transform="translate(0.73 -0.18)"/>
      <path class="cls-2" d="M48.62,807.59a.58.58,0,0,1-.12.25C48.62,807.73,48.65,807.59,48.62,807.59Z" transform="translate(0.73 -0.18)"/>
      <path class="cls-2" d="M42.88,759.45c-.12.42-.07.37,0,.23a1.23,1.23,0,0,1,0-.19Z" transform="translate(0.73 -0.18)"/>
      <path class="cls-2" d="M40.87,766.79h0Z" transform="translate(0.73 -0.18)"/>
      <path class="cls-2" d="M49.56,816.68a.44.44,0,0,0,.07-.22h0A.75.75,0,0,1,49.56,816.68Z" transform="translate(0.73 -0.18)"/>
      <path class="cls-2" d="M49.65,826.66l-.06-.09a.52.52,0,0,0-.1-.11C49.3,826.24,49.82,826.89,49.65,826.66Z" transform="translate(0.73 -0.18)"/>
      <path class="cls-2" d="M47.85,796.4l0,0C47.82,796.35,47.79,796.33,47.85,796.4Z" transform="translate(0.73 -0.18)"/>
      <path class="cls-2" d="M55.36,756.06c0,.13,0,.25,0,.37s0,.18.05.26Z" transform="translate(0.73 -0.18)"/>
      <path class="cls-2" d="M55.44,758.42c0,.11,0,.23-.06.35s0,.18,0,.27Z" transform="translate(0.73 -0.18)"/>
      <path class="cls-2" d="M65.76,799.22a1.8,1.8,0,0,1,.08.21c.06.12.12.24.17.36C65.93,799.6,65.85,799.41,65.76,799.22Z" transform="translate(0.73 -0.18)"/>
      <path class="cls-2" d="M53.85,763.74l-.12.28c0,.09-.09.19-.13.28Z" transform="translate(0.73 -0.18)"/>
      <path class="cls-2" d="M56.26,770.07c0-.09.08-.19.13-.28s.07-.19.11-.28Z" transform="translate(0.73 -0.18)"/>
      <path class="cls-2" d="M63.2,795.17l.24.32.14.16Z" transform="translate(0.73 -0.18)"/>
      <path class="cls-2" d="M57.08,782.54c-.06-.08-.12-.17-.19-.25s-.13-.15-.19-.22C56.83,782.22,57,782.38,57.08,782.54Z" transform="translate(0.73 -0.18)"/>
      <path class="cls-2" d="M55.38,779.94l-.11-.3-.13-.27Z" transform="translate(0.73 -0.18)"/>
      <path class="cls-2" d="M54.65,775.44c0-.11,0-.21.05-.32l0-.31Z" transform="translate(0.73 -0.18)"/>
      <path class="cls-2" d="M54.71,777.83l0-.28-.06-.35Z" transform="translate(0.73 -0.18)"/>
      <path class="cls-2" d="M64.79,823.24l.06-.34a2.58,2.58,0,0,1,0-.29Z" transform="translate(0.73 -0.18)"/>
      <path class="cls-2" d="M64.87,825.51c0-.11,0-.21,0-.32s0-.2,0-.31Z" transform="translate(0.73 -0.18)"/>
      <path class="cls-2" d="M65.87,819.35l.1-.22c0-.12.09-.23.14-.34Z" transform="translate(0.73 -0.18)"/>
      <path class="cls-2" d="M68.28,794a34.86,34.86,0,0,0-5.63-6.14,52.38,52.38,0,0,1-5.76-5.58c.07.08.13.17.19.25-.12-.16-.25-.32-.38-.47.06.07.13.14.19.22a14.69,14.69,0,0,1-1.62-2.65l.11.3-.24-.57.13.27a10.82,10.82,0,0,1-.59-2.09l0,.28-.09-.63.06.35a11.61,11.61,0,0,1,0-2.43c0,.11,0,.21-.05.32l.08-.63,0,.31a23.29,23.29,0,0,1,1.69-5.33c0,.09-.09.19-.13.28l.24-.56c0,.09-.07.19-.11.28C58,766,60,762.33,60.27,758.17a12.63,12.63,0,0,0-.34-3.67,2.45,2.45,0,0,0-3-1.65,2.41,2.41,0,0,0-1.69,2.91c0,.22.09.45.13.67,0-.12,0-.24,0-.37l.09.63c0-.08,0-.17-.05-.26a10.77,10.77,0,0,1,0,2.34c0-.12,0-.24.06-.35l-.08.62c0-.09,0-.18,0-.27A23.36,23.36,0,0,1,53.73,764l.12-.28-.25.56c0-.09.08-.19.13-.28-.94,2.13-2,4.23-2.76,6.42a16.41,16.41,0,0,0-1.15,6.81,13.76,13.76,0,0,0,2.69,7.15,34.67,34.67,0,0,0,5.15,5.41,50.84,50.84,0,0,1,5.78,5.68l-.24-.32.38.48-.14-.16a20.34,20.34,0,0,1,2.4,3.94,1.8,1.8,0,0,0-.08-.21c.09.19.17.38.25.57-.05-.12-.11-.24-.17-.36a14.55,14.55,0,0,1,.91,3.17l0-.35.08.63a2.33,2.33,0,0,0,0-.28,12.73,12.73,0,0,1,0,2.76c0-.11,0-.22,0-.33l-.08.63,0-.3a18.37,18.37,0,0,1-1.12,3.75l.09-.2-.25.57.16-.37c-1.52,3.41-3.62,6.54-4.82,10.09a13.33,13.33,0,0,0,.45,10.42,9.1,9.1,0,0,0,3.94,4,2.49,2.49,0,0,0,3.31-.84,2.38,2.38,0,0,0-.87-3.24,4.57,4.57,0,0,1-.71-.42c.07.06.13.13.2.18l-.49-.37a2.9,2.9,0,0,0,.29.19,6.66,6.66,0,0,1-.89-.87l.2.28-.37-.48c0,.07.11.13.17.2a7.59,7.59,0,0,1-.68-1.17c0,.1.07.2.11.29l-.24-.56c0,.09.08.18.13.27a10.09,10.09,0,0,1-.53-1.88c0,.11,0,.21,0,.32l-.09-.63c0,.11,0,.21,0,.31a11,11,0,0,1,0-2.29l-.06.34.09-.63a2.58,2.58,0,0,0,0,.29A17.76,17.76,0,0,1,66,819.13l-.1.22.24-.56c0,.11-.09.22-.14.34,1.17-2.63,2.71-5.08,3.86-7.71a17.06,17.06,0,0,0,1.72-9.17A18.87,18.87,0,0,0,68.28,794Z" transform="translate(0.73 -0.18)"/>
      <path class="cls-2" d="M65.47,827.36c0-.09-.07-.19-.11-.29s-.09-.18-.13-.27Z" transform="translate(0.73 -0.18)"/>
      <path class="cls-2" d="M65.72,808.91l-.09.2-.16.37Z" transform="translate(0.73 -0.18)"/>
      <path class="cls-2" d="M66.24,828.52l-.2-.28c-.06-.07-.12-.13-.17-.2Z" transform="translate(0.73 -0.18)"/>
      <path class="cls-2" d="M66.72,802.25l0,.35a2.33,2.33,0,0,1,0,.28Z" transform="translate(0.73 -0.18)"/>
      <path class="cls-2" d="M66.8,805c0,.11,0,.22,0,.33l0,.3Z" transform="translate(0.73 -0.18)"/>
      <path class="cls-2" d="M67.13,829.29c-.07,0-.13-.12-.2-.18a2.9,2.9,0,0,1-.29-.19Z" transform="translate(0.73 -0.18)"/>
    </g>
    <path class="cls-2" d="M1121.23,617.21c-40-10.73-40.81,8.78-43.21,57.56s-27.21,39-42.41,43.91-34.41,79-52.81,93.66S927.59,824,906,817.21s-36.81-11.7-65.62-40S781.16,788.92,738.76,785s-48.81,36.1-71.22,69.27-23.2,37.07-61.61,57.56-37.61,4.88-84.81,5.85-35.21,25.37-42.41,30.59-74.42,9.41-109.62-26.68-64.81-16.59-96-17.08-53.61-12.19-79.21-31.7-57.62-19.52-81.62-18.54S90.64,836.73,61,808.43-.18,818.19-.18,818.19V1127H1200V560.72c-1.29.46-4.76,2.34-13.2,7.71C1168.43,580.14,1161.23,627.94,1121.23,617.21Z" transform="translate(0.73 -0.18)"/>
    <path class="cls-2" d="M208.83,853.87c-1.77,2.07-3.91,3.18-4.78,2.47s-.14-3,1.63-5c.15-.17.3-.34.46-.5-.74-.54-1.47-1-2.2-1.51a14,14,0,0,1-1.18,2.8c-1.5,2.74-3.53,4.54-4.52,4s-.59-3.17.91-5.92a14.08,14.08,0,0,1,1.82-2.6c-.62-.33-1.25-.62-1.87-.9-.09.19-.19.38-.29.57-1.51,2.74-3.53,4.54-4.53,4s-.59-3.17.91-5.92a.61.61,0,0,0,.07-.1c-.67-.21-1.33-.38-2-.54-.18.38-.37.76-.58,1.14-1.78,3.26-4,5.47-5,4.95s-.36-3.56,1.4-6.8c-1.11-.11-2.2-.16-3.26-.16-.07,2.39-.88,4.25-1.93,4.27s-1.91-1.72-2.12-4c-.65.08-1.29.17-1.91.28.09.31.17.64.24,1s.07.42.1.62.1.4.14.61c.52,2.63-.15,5-1.49,5.22s-2.85-1.67-3.37-4.3c0-.21-.08-.41-.1-.62s-.1-.4-.15-.61-.08-.49-.11-.72c-.84.26-1.63.54-2.37.83.22.29.44.6.65.93,1.44,2.27,1.93,4.53,1.09,5s-2.68-.93-4.12-3.2a12,12,0,0,1-.76-1.38,26,26,0,0,0-3.08,1.76c10.14,4.83,9.4,18.55,9.4,18.55l19.5,4.47c2.55-8.87,15.12-18.07,15.12-18.07-.42-.4-.84-.78-1.26-1.15C209.13,853.5,209,853.69,208.83,853.87Zm-31.54,5.65c-.39-2,.12-3.8,1.15-4s2.18,1.28,2.58,3.3-.12,3.8-1.15,4S177.69,861.53,177.29,859.52Zm4.25,7a1.38,1.38,0,0,1-1.87.06c-.71-.46-1-1.22-.68-1.71a1.39,1.39,0,0,1,1.88-.06C181.57,865.29,181.87,866.05,181.54,866.54Zm12-12.64c.82,0,1.51.38,1.54,1s-.6,1.07-1.42,1.11-1.52-.38-1.55-1S192.74,854,193.56,853.9Zm-10.1-3.09c.67-.2,1.46.39,1.74,1.33a1.56,1.56,0,0,1-.7,2.05c-.67.2-1.45-.4-1.74-1.33A1.56,1.56,0,0,1,183.46,850.81Zm-.44,8c-.5,0-.94-.51-1-1.2s.33-1.28.83-1.31.94.52,1,1.21S183.52,858.74,183,858.77Zm2.79,8.3c-.93.17-1.9-.78-2.16-2.13s.26-2.6,1.19-2.77,1.9.78,2.17,2.13S186.74,866.89,185.81,867.07Zm3.89-8.66c-1,1.5-2.46,2.31-3.24,1.81s-.57-2.13.44-3.62,2.46-2.31,3.24-1.81S190.71,856.91,189.7,858.41Zm2.35,5.76c-1.2-.77-1.28-2.72-.17-4.35s3-2.32,4.16-1.55,1.28,2.73.18,4.36S193.25,865,192.05,864.17Zm4.89,2.32c-1,1.56-2.06,2.67-2.38,2.48s.23-1.62,1.23-3.18,2.06-2.67,2.37-2.48S197.94,864.93,196.94,866.49Zm5.07-7.37c-.55.81-1.33,1.25-1.75,1s-.31-1.15.24-2,1.33-1.24,1.74-1S202.55,858.31,202,859.12Z" transform="translate(0.73 -0.18)"/>
    <g>
      <path class="cls-2" d="M656.67,829.18c2.21-9.92-4.18-17.82-4.18-17.82,2,5.11,1.17,5-1.63,13.16s1.95,20.35,11.36,27.67a34.84,34.84,0,0,1,11.9,17l1.68-.66a30.81,30.81,0,0,0-4.4-13.09C667.74,849.85,654.46,839.1,656.67,829.18Z" transform="translate(0.73 -0.18)"/>
      <path class="cls-2" d="M656.76,850.72c-12.61-10.11-17.41-7.72-21.89-23.82,0,0-1.39,12.21,5.09,18.05s16.8,5.77,20.61,18.55c2.65,8.86.81,10.28.81,10.28l2.41-1.62S669.37,860.84,656.76,850.72Z" transform="translate(0.73 -0.18)"/>
      <path class="cls-2" d="M670.77,838c-8.61-5.09-6.79-6.92-7-18.12,0,0-7.24,15.65.25,21.49s13.1,6.49,12.38,22.1l2.19-.86S680.52,843.81,670.77,838Z" transform="translate(0.73 -0.18)"/>
    </g>
    <g>
      <path class="cls-2" d="M1057.14,703.19c3-13.29-1.7-27.23-10.29-32.14s-9.21-4.18-11.22-10c0,0,.11,11.52,9.45,18.35s5.36,25.93,6.22,33.48a33.36,33.36,0,0,0,5.76,14.47l2-.69A38.15,38.15,0,0,1,1057.14,703.19Z" transform="translate(0.73 -0.18)"/>
      <path class="cls-2" d="M1067,711.62c-6-13.77,3.32-21.42,4.82-31.27s-8.81-19.23-8.81-19.23c7.91,17.11,1.81,18.65-2,36.73s9.56,23.57,9.56,23.57l3.37-.42S1071.2,721.17,1067,711.62Z" transform="translate(0.73 -0.18)"/>
      <path class="cls-2" d="M1047.54,695.32c2.42-10.6-15.72-18.55-15.72-18.55,8.12,9.74,11.11,9.93,7.13,20.72-4.5,12.23,11.21,26.87,11.21,26.87l2.62-.9C1040.56,710.66,1045.13,705.91,1047.54,695.32Z" transform="translate(0.73 -0.18)"/>
    </g>
    <path class="cls-2" d="M1140.22,585.71c-.13.37-.26.74-.42,1.12-1.42,3.53-3.57,6-4.79,5.53s-1.06-3.72.37-7.24c.12-.3.24-.59.37-.87-1.09-.3-2.16-.56-3.2-.78,0,.24,0,.48,0,.72.23,4.63-1.33,8.46-3.49,8.56s-4.1-3.56-4.33-8.18a19.88,19.88,0,0,1,0-2.05,36,36,0,0,0-4.94.19c.26.68.51,1.41.73,2.16,1.31,4.45,1.34,8.35.05,8.72s-3.4-3-4.71-7.4a25.32,25.32,0,0,1-.65-2.68c-.81.2-1.59.43-2.34.67l.36.9c1.68,4.54,1.51,8.77-.38,9.44s-4.8-2.46-6.48-7l-.12-.32a34.64,34.64,0,0,0-3.62,2.51c.15.18.3.35.44.53,3.07,3.79,4.76,7.48,3.78,8.24s-4.27-1.69-7.33-5.48l-.21-.26a25,25,0,0,0-3.07,3.82c19.34,8.21,25.22,31.05,25.22,31.05l19.91-2.69c-8.79-19.77,1.7-38,1.7-38C1142.15,586.45,1141.17,586.06,1140.22,585.71Zm-9.1,21.14c.44.08.65,1,.47,2s-.7,1.8-1.14,1.72-.66-1-.47-2S1130.67,606.78,1131.12,606.85Zm-6.81-7c.33-2.54,2-4.43,3.62-4.22s2.74,2.44,2.41,5-1.95,4.43-3.62,4.23S1124,602.37,1124.31,599.82Zm-5.34-.19c.21-1.2,1-2,1.85-1.91s1.28,1.22,1.07,2.41-1.05,2-1.85,1.92S1118.75,600.82,1119,599.63Zm-2.19,6.88c-1.24.54-3.2-1.1-4.37-3.66s-1.1-5.07.14-5.62,3.2,1.09,4.37,3.66S1118,606,1116.78,606.51Zm5.34,13.59c-1,.42-2.6-1.13-3.67-3.47s-1.15-4.58-.19-5,2.61,1.14,3.67,3.48S1123.08,619.68,1122.12,620.1Zm-.89-10.73c-.67-1.46-.47-3,.45-3.37s2.19.46,2.86,1.93.46,3-.45,3.37S1121.9,610.83,1121.23,609.37Zm6,11.93a1.38,1.38,0,0,1-1.68.93,1.36,1.36,0,0,1-1.26-1.44,1.38,1.38,0,0,1,1.68-.93A1.36,1.36,0,0,1,1127.22,621.3Zm-1.09-5.61c.12-1.73,1.26-3.06,2.54-3s2.22,1.56,2.1,3.3-1.26,3.06-2.54,3S1126,617.42,1126.13,615.69Zm5.93,7.19a1.62,1.62,0,0,1-1.77,1.43,1.6,1.6,0,0,1-1.16-1.94,1.63,1.63,0,0,1,1.77-1.42A1.58,1.58,0,0,1,1132.06,622.88Zm3.23-6.71c-.22,3.09-.9,5.55-1.51,5.51s-1-2.57-.73-5.66.9-5.55,1.52-5.51S1135.51,613.09,1135.29,616.17Zm.89-14.57c-.5,2.75-1.74,4.84-2.77,4.66s-1.46-2.55-1-5.3,1.73-4.84,2.76-4.67S1136.67,598.85,1136.18,601.6Z" transform="translate(0.73 -0.18)"/>
    <path class="cls-2" d="M1188.8,561.16a1.65,1.65,0,0,0-3.28.38c0,.21,0,.42,0,.64v.07c0,.09,0,.18,0,.27a9,9,0,0,1-.16,1.27c0,.22-.1.42-.14.63h0a3,3,0,0,1-.1.32,12.57,12.57,0,0,1-.49,1.2c-.09.17-.18.35-.28.52l0,.06-.18.29a11.14,11.14,0,0,1-.78,1c-.13.15-.26.3-.4.44l0,0h0a1.06,1.06,0,0,1-.15.15,51.42,51.42,0,0,0-5-6.71q-1.42-1.66-2.87-3.32-.33-6.36-.65-12.71a1.65,1.65,0,0,0-1.83-1.41,1.67,1.67,0,0,0-1.45,1.79q.22,4.14.43,8.3l-7.1-8.19a1.7,1.7,0,0,0-2.31-.29,1.6,1.6,0,0,0-.3,2.26l4.07,4.69-5.83.33a1.64,1.64,0,0,0-1.45,1.79,1.69,1.69,0,0,0,1.83,1.41l8.11-.45,5.61,6.46.64.74a27.62,27.62,0,0,0-5.23-.23,1.65,1.65,0,0,0-1.45,1.79,1.68,1.68,0,0,0,1.83,1.41l1.14,0h.84c.73,0,1.46.1,2.19.19s1.45.23,2.16.38l1,.25.38.11.48.15c.58.75,1.13,1.53,1.65,2.33l.51.83.18.3c.09.18.19.36.29.54.32.62.62,1.26.89,1.91a17,17,0,0,1,.58,1.7,2.17,2.17,0,0,1,.07.24l0-.12a2.27,2.27,0,0,1,.1.43c.07.3.13.6.18.91a15.33,15.33,0,0,1,.2,2,1.09,1.09,0,0,0,0,.18v.26a2.09,2.09,0,0,0,0,.25c0,.34,0,.69-.1,1s-.1.64-.17,1c0,.16-.07.31-.11.47a.2.2,0,0,0,0,.07l0,.12a11,11,0,0,1-.82,1.9,1.6,1.6,0,0,0,.87,2.11,1.71,1.71,0,0,0,2.16-.85c2.28-4.14,1.79-9.13,0-13.37A12.08,12.08,0,0,0,1188.8,561.16Z" transform="translate(0.73 -0.18)"/>
    <path class="cls-2" d="M1164.71,601.45a1.63,1.63,0,0,0-2.21.38c-.18.23-.37.46-.57.68l-.21.22c-.1.11-.21.21-.32.31a12.23,12.23,0,0,1-1.49,1.2l-.21.13a3.37,3.37,0,0,1-.32.19c-.3.17-.6.33-.91.47l-.41.19c0-.14,0-.27,0-.41h0a1.7,1.7,0,0,0-.07-.55c0-.5-.09-1-.11-1.51v-.17c0-.15,0-.3,0-.45q0-.54,0-1.08h0a1.31,1.31,0,0,0,.24-.28A47.46,47.46,0,0,0,1164,587a1.57,1.57,0,0,0-.93-2,1.61,1.61,0,0,0-2,.91,45.89,45.89,0,0,1-2.29,6.85c-.15.34-.3.69-.46,1,.09-1.38.16-2.76.15-4.14a31.87,31.87,0,0,0-.61-6.17,22.09,22.09,0,0,0,7.08-12,1.57,1.57,0,0,0-1.43-1.69,1.87,1.87,0,0,0-1.77,1.58c0,.13-.07.25-.1.37s-.13.47-.2.71c-.16.5-.33,1-.53,1.5s-.41,1-.65,1.45l-.22.44,0,0,0,0c-.13.23-.26.46-.4.69a20.71,20.71,0,0,1-1.86,2.59l-.53.6,0,0,0,0-.2.21a31.22,31.22,0,0,0-4.36-8.47,1.61,1.61,0,0,0-2.23-.19,1.57,1.57,0,0,0-.19,2.19c.21.29.41.57.61.87l.09.14,0,.05.34.53c.37.62.73,1.25,1.06,1.9a30.47,30.47,0,0,1,1.68,4l0,.12,0,.08c0,.18.11.36.16.54.1.36.2.72.29,1.08.17.7.32,1.41.44,2.12s.19,1.26.25,1.89l-.69-.49c-.23-.17-.45-.35-.67-.53l-.29-.24-.16-.14c-.41-.38-.8-.76-1.17-1.16s-.73-.83-1.06-1.27c-.18-.22-.34-.45-.51-.68l-.13-.2a3.23,3.23,0,0,1-.18-.28,18,18,0,0,1-1.52-3,1.62,1.62,0,0,0-2.12-.74,1.57,1.57,0,0,0-.75,2.06,20.31,20.31,0,0,0,9.37,10.4c0,2.05-.22,4.11-.36,6.16l-.45-.56-.55-.75-.06-.09-.08-.12-.27-.46a17.07,17.07,0,0,1-.89-1.76,1.62,1.62,0,0,0-2.11-.74,1.57,1.57,0,0,0-.76,2.07,18.19,18.19,0,0,0,5,6.62c0,.6,0,1.2,0,1.8l-.37-.11a7.41,7.41,0,0,1-.75-.26c-.24-.09-.49-.19-.73-.3s-.28-.12-.4-.2c.36.23-.07,0-.14-.08a11.56,11.56,0,0,1-1.37-.9,8.38,8.38,0,0,1-.66-.52l0,0,0,0-.29-.28a10.91,10.91,0,0,1-1.1-1.26c-.1-.12-.18-.24-.27-.36l-.08-.11a5.36,5.36,0,0,1-.4-.69,11.52,11.52,0,0,1-.68-1.53,1.58,1.58,0,0,0-2.87,1.33A13.78,13.78,0,0,0,1155,606c0,.24.07.47.12.71a17,17,0,0,0,4,8.47,1.63,1.63,0,0,0,2.23.18,1.54,1.54,0,0,0,.19-2.18,13.78,13.78,0,0,1-1.21-1.53h0l-.11-.16-.25-.44c-.17-.29-.32-.59-.47-.9a18.51,18.51,0,0,1-.71-1.79h0l0-.12a14.23,14.23,0,0,0,6.37-4.66A1.54,1.54,0,0,0,1164.71,601.45Z" transform="translate(0.73 -0.18)"/>
  </g>
  <g>
    <g>
      <path class="cls-3" d="M1200.73,959.4v.33C1210.68,965.46,1200.73,959.4,1200.73,959.4Z" transform="translate(0.73 -0.18)"/>
      <path class="cls-3" d="M1178.71,913.65c-9.62,6.69-26.44-16.73-37.65-37.92-7-13.15-17.3-7-24.16-.4-13.25-15.89-27.34-31.54-42.32-44.21A46.89,46.89,0,0,0,1057,821.5c-5.13-28.85-21.76-33.45-37.68-26.07-16.82,7.81-12,8.92-29.63,8.92-11.16,0-21.35,28.61-27.33,49.61-11,5-21.7,8.53-32,8.39-55.84-.8-91.31,149.43-126.55,149.43-6.82,0-13.76,2.43-20.87,6.55-14.39-10.82-30.11-15.88-37.6-12.22-11.22,5.47-11.22,35.79-40,49.17-16.56,7.68-24.4,32.35-28.07,52-49.78,26.43-125.64,9.4-158.56,11.59-3.2-26.77-23.23-53.54-35.24-46.84s-19.23-12.27-29.64-33.69-18.42,6.92-47.26,0-17.62-16.5-36-23.75c-8.26-3.25-16.84,1.19-23.79,7.08-38.22-22.8-86.19-41.89-103.57-43.32-53.84-4.44-58.43,34-71.29,65.52-1.38-1.11-2.68-2.14-3.88-3.07-15.91-12.27-16.94,25.65-33,21.19-9.28-2.59-12.34,6.81-13.27,15.17a58,58,0,0,1-19.57-11.83s1.07-20.77-8.1-32.06a69.4,69.4,0,0,0,4.57-13.66c3.07-15.72,2.73-46.84-9.9-45.72s-15.4-20.08-26.52-27.33c-7.19-4.68-14.49,10-19.27,21.51C23,962.83-.73,965-.73,965v235.86H1200.73V959.73l-.24-.14.24-.19S1188.32,907,1178.71,913.65Z" transform="translate(0.73 -0.18)"/>
    </g>
    <path class="cls-3" d="M828.12,953.12c-.36.76-.74,1.52-1.15,2.29-3.79,7.14-8.49,11.67-10.49,10.11s-.56-8.59,3.23-15.73c.32-.6.64-1.18,1-1.74-1.83-1.13-3.64-2.15-5.41-3.07,0,.53-.11,1.07-.17,1.62-1.24,10.24-5.38,18-9.26,17.32s-6-9.54-4.79-19.79c.19-1.56.45-3.06.76-4.48a56.61,56.61,0,0,0-8.87-1.67c.23,1.61.41,3.3.54,5.06.76,10.32-.59,18.89-3,19.15s-5-7.89-5.76-18.21c-.15-2.15-.22-4.22-.2-6.16-1.51.1-3,.27-4.4.49.11.7.22,1.41.31,2.13,1.39,10.67-.42,19.88-4,20.56s-7.66-7.42-9-18.09l-.09-.75a55.62,55.62,0,0,0-7.34,4l.6,1.35c4.11,9.6,5.8,18.4,3.79,19.66s-7-5.5-11.11-15.09l-.27-.66a49.67,49.67,0,0,0-6.83,7.09c31.51,26.15,33.85,78.74,33.85,78.74l36.4,2.46c-8.62-47.09,16.55-82.81,16.55-82.81C831.29,955.55,829.69,954.29,828.12,953.12Zm-33.34,24.3c1.5-5.44,5.05-8.91,7.94-7.75s4,6.5,2.52,11.94-5,8.92-7.94,7.76S793.28,982.86,794.78,977.42Zm-9.44-2.67c.81-2.53,2.59-4.07,4-3.42s1.85,3.22,1.05,5.75-2.59,4.07-4,3.42S784.53,977.28,785.34,974.75Zm-12.81,4.32c-1.17-6.11-.16-11.61,2.25-12.27s5.31,3.74,6.47,9.85.16,11.6-2.25,12.27S773.69,985.18,772.53,979.07ZM783.67,1021c-1.86.52-4.23-3.58-5.3-9.17s-.42-10.52,1.44-11,4.24,3.59,5.3,9.17S785.53,1020.5,783.67,1021Zm4.22-31.14c1.77-.49,3.75,1.94,4.41,5.43s-.22,6.72-2,7.21-3.74-1.94-4.41-5.43S786.13,990.36,787.89,989.87Zm4.42,35.9a2.33,2.33,0,0,1-3.32,1.35,3.17,3.17,0,0,1-1.72-3.69,2.33,2.33,0,0,1,3.33-1.34A3.14,3.14,0,0,1,792.31,1025.77Zm8.07,5.52c-.63,2-2.27,3-3.66,2.39s-2-2.76-1.39-4.73,2.27-3,3.66-2.4S801,1029.32,800.38,1031.29Zm.14-15.64c-.83,3.75-3.33,6.2-5.58,5.47s-3.4-4.36-2.57-8.11,3.34-6.19,5.59-5.46S801.36,1011.91,800.52,1015.65Zm1.36-12.06c-.76-.35-.82-2.4-.12-4.58s1.87-3.65,2.64-3.3.82,2.41.12,4.58S802.65,1004,801.88,1003.59Zm6.63,14.33c-1.49,6.68-3.57,11.81-4.66,11.45s-.76-6,.73-12.72,3.57-11.81,4.65-11.45S810,1011.25,808.51,1017.92Zm6.76-31.62c-1.87,5.84-4.81,9.9-6.58,9.08s-1.7-6.22.17-12.06,4.81-9.89,6.58-9.07S817.13,980.47,815.27,986.3Z" transform="translate(0.73 -0.18)"/>
    <path class="cls-3" d="M146.65,892.31c-9.08,8.2-18.31,11.84-20.62,8.12s3.19-13.38,12.27-21.58c.77-.69,1.53-1.35,2.29-2q-3.36-4.44-6.75-8.35c-.32.78-.65,1.56-1,2.33-6.68,14.66-16.59,23.55-22.13,19.87s-4.63-18.54,2-33.19c1-2.23,2.11-4.32,3.24-6.26a102.93,102.93,0,0,0-12.62-8.58c-.41,2.58-.93,5.27-1.56,8-3.7,16.12-9.76,28.16-13.55,26.89s-3.85-15.35-.15-31.46c.77-3.36,1.65-6.54,2.58-9.46-2.32-.88-4.62-1.63-6.88-2.26-.15,1.13-.33,2.28-.52,3.43-2.92,17.09-10,29.77-15.75,28.34s-8.1-16.45-5.18-33.53l.21-1.2a80.82,80.82,0,0,0-13,1c.09.81.18,1.63.26,2.45,1.71,17.32.15,31.79-3.5,32.31s-8-13.09-9.7-30.4c0-.4-.07-.79-.11-1.18a67.38,67.38,0,0,0-13.66,6.05c35.39,61.07,14.23,142.2,14.23,142.2L91,1012.5c9.07-77.09,63.89-113.91,63.89-113.91q-2.71-4.7-5.46-9C148.57,890.53,147.63,891.43,146.65,892.31Zm-59,11.28c4.82-7.2,11.82-10,15.65-6.3s3,12.59-1.8,19.79-11.82,10-15.65,6.3S82.82,910.8,87.64,903.59Zm4,41.25c-2.07,2.81-4.55,4.24-5.54,3.18s-.11-4.2,2-7,4.55-4.24,5.54-3.18S93.71,942,91.64,944.84Zm-17-51.74c2.41-3.28,5.82-4.38,7.61-2.46s1.29,6.14-1.12,9.41-5.82,4.39-7.61,2.47S72.21,896.38,74.62,893.1Zm3.76,72.23c-3,5.1-7.95,7.09-11,4.45s-3.1-8.92-.08-14,8-7.09,11-4.45S81.4,960.23,78.38,965.33Zm-7-47.62c2.9.46,4.75,5.49,4.11,11.23s-3.49,10-6.4,9.54S64.36,933,65,927.25,68.48,917.24,71.39,917.71Zm-21,44.21c-3.05-.49-4.71-8.32-3.71-17.49S51,928.23,54,928.72s4.71,8.32,3.71,17.48S53.44,962.41,50.38,961.92ZM61.22,975c-1.32,1.8-3.86,1.69-5.66-.24s-2.19-4.95-.86-6.75,3.85-1.7,5.66.23S62.54,973.23,61.22,975Zm-2.84-64.82c-4-.64-6.27-9.29-5.16-19.32s5.2-17.67,9.16-17,6.27,9.28,5.17,19.32S62.34,910.84,58.38,910.21Zm12.44,78.66c-1.87,2.55-4.85,3-6.65,1.12s-1.75-5.56.13-8.1,4.86-3.06,6.66-1.13S72.7,986.33,70.82,988.87Zm18.57-14.65C84,983.3,78.45,989.63,77,988.35s1.68-9.67,7.06-18.75S95,954.19,96.46,955.47,94.77,965.14,89.39,974.22ZM114.45,931c-5.55,7.55-11.91,11.69-14.2,9.23s.35-10.56,5.91-18.11,11.91-11.68,14.2-9.23S120,923.47,114.45,931Z" transform="translate(0.73 -0.18)"/>
    <g>
      <path class="cls-3" d="M586.35,944s-7.59,31.37,7.59,58.65-6.24,75.4-9.52,96.68c-3.51,22.69,2.37,44.67,2.37,44.67h4.72s-3.64-32.24,11.84-65.43,14.88-75.47,0-96.83S586.65,961.76,586.35,944Z" transform="translate(0.73 -0.18)"/>
      <path class="cls-3" d="M615.11,1067.72c-20.44,45.42,4.28,72.91,4.28,72.91l7.43,2s-5.86-2.09-8.26-31.93c-3.45-43,21.57-55,31.43-80.31S644.37,970,644.37,970C649.53,1023.83,635.55,1022.3,615.11,1067.72Z" transform="translate(0.73 -0.18)"/>
      <path class="cls-3" d="M567.6,983.17c10.59,34,16.8,37.37,1.06,62.91-17.84,28.94,5.53,83.42,5.53,83.42h6.16c-17.23-46.19-4.31-54.78,8-81.26S567.6,983.17,567.6,983.17Z" transform="translate(0.73 -0.18)"/>
    </g>
    <path class="cls-3" d="M729.24,982.73l11.15-8.8a3.56,3.56,0,0,0,1-4.3,2.48,2.48,0,0,0-3.7-1l-8,6.32q.33-6,.67-11.92a2.89,2.89,0,0,0-2.67-3.09c-1.51-.06-2.66,1.53-2.75,3.16q-.57,10.39-1.15,20.79L716,970.7a2.52,2.52,0,0,0-3.69-1,3.47,3.47,0,0,0-1,4.29l11.87,20.14c-.15,2.8-.31,5.61-.45,8.41a112.9,112.9,0,0,0,.06,16.14.88.88,0,0,1-.33,0h0l-.09,0-1-.2a16.46,16.46,0,0,1-2.06-.66l-.53-.23-.1,0c-.3-.15-.6-.31-.89-.48a16.94,16.94,0,0,1-1.84-1.24l-.46-.37h0c-.28-.26-.56-.52-.82-.79a18.16,18.16,0,0,1-1.5-1.75l-.28-.39-.07-.11c-.21-.33-.41-.68-.61-1a2.52,2.52,0,0,0-3.69-1,3.51,3.51,0,0,0-1,4.3c3.48,6.26,9.66,10.28,16.17,10.4,1.85,8.59,6.21,16.78,13.35,20.41a2.62,2.62,0,0,0,3.7-1.22c.75-1.35.33-3.59-1-4.24a17.84,17.84,0,0,1-3-1.94l-.17-.12-.09-.1c-.21-.19-.42-.38-.62-.58-.41-.41-.8-.83-1.18-1.27s-.79-1-1.16-1.46l-.26-.36-.16-.24-.1-.16-.17-.28a28.61,28.61,0,0,1-1.77-3.33c-.24-.53-.47-1.06-.68-1.6a3.71,3.71,0,0,1-.29-.77s.19.57.07.22l-.15-.45c-.36-1.07-.67-2.17-.93-3.28-.3-1.3-.55-2.62-.74-4,0-.38-.11-.77-.15-1.16,0-.13-.08-.72-.08-.66-.06-.63-.11-1.25-.15-1.87-.12-1.83-.17-3.66-.17-5.49l.48-.78c0-.07.34-.53.39-.62.35-.51.7-1,1.06-1.53.79-1.07,1.61-2.11,2.47-3.1s1.76-1.95,2.69-2.85l.57-.54.54-.48c.5-.44,1-.86,1.52-1.27a3.55,3.55,0,0,0,1-4.3,2.49,2.49,0,0,0-3.7-1,48,48,0,0,0-6.67,6.48c0-.63.07-1.26.11-1.89Q728.78,990.94,729.24,982.73Z" transform="translate(0.73 -0.18)"/>
    <path class="cls-3" d="M281.39,941.37c-2.24-.62-4.35.81-5.05,3.46-.17.63-.35,1.26-.54,1.87a1.42,1.42,0,0,0-.07.22c-.1.24-.19.49-.29.74a33.85,33.85,0,0,1-1.6,3.45c-.3.55-.63,1.08-.94,1.62v0l-.55.81a33.58,33.58,0,0,1-2.29,2.85c-.36.4-.74.79-1.13,1.17l-.13.13c-.13.1-.67.59-.7.62a24.85,24.85,0,0,1-2.8,2.06c-.44.28-.88.55-1.33.8l-.14.08h0a1.71,1.71,0,0,1-.47.23,184,184,0,0,0-5.24-24.85q-1.71-6.35-3.45-12.7l10.68-37c.71-2.45-.8-5.53-2.87-6.1-2.29-.63-4.3.84-5.06,3.47q-3.48,12.07-7,24.16-4.29-15.69-8.56-31.39c-.68-2.46-2.88-4.32-5.06-3.46a5.23,5.23,0,0,0-2.87,6.1q2.44,9,4.91,18l-13.79-5.66c-2-.84-4.59,1-5.06,3.46-.52,2.75.69,5.21,2.87,6.1l19.19,7.89q3.38,12.39,6.76,24.78c.26,1,.52,1.9.77,2.84a62.76,62.76,0,0,0-11.87-6.58c-2-.85-4.59,1-5.06,3.46a5.29,5.29,0,0,0,2.87,6.11c.89.37,1.78.76,2.65,1.18l.94.46,1,.54q2.49,1.38,4.87,3t4.63,3.53c.7.58,1.39,1.19,2.06,1.81l.78.75.95,1c.61,2.82,1.14,5.65,1.57,8.52.15,1,.27,2,.4,3,0-.09.09.85.11,1.07q.09.93.15,1.86c.16,2.14.25,4.29.23,6.44,0,1.85-.11,3.69-.28,5.52,0,.26,0,.51-.07.76-.06.6,0-.37,0-.37a7.46,7.46,0,0,1-.17,1.32c-.13.95-.29,1.88-.46,2.82a54.94,54.94,0,0,1-1.49,6c0,.18-.11.35-.16.53l-.09.29c0,.12-.13.36-.16.44-.08.23-.17.46-.26.69-.37,1-.77,1.91-1.21,2.84s-.84,1.72-1.3,2.54c-.23.41-.48.82-.72,1.22a1,1,0,0,0-.09.19l-.22.28a30.83,30.83,0,0,1-3.74,4.49c-1.66,1.66-1.53,5.32,0,7,1.77,2,4,1.77,5.82,0,9.23-9.21,12.88-24,12.74-38.16,9.48-3.48,17.17-12.8,20.18-24.18C284.92,945,283.5,942,281.39,941.37Z" transform="translate(0.73 -0.18)"/>
    <path class="cls-3" d="M1162.9,787.64c-2.54-1.53-5.57-.62-7,2.39-.48,1-1,2-1.51,3-.25.45-.5.9-.76,1.34,0,.08-.35.59-.52.88l-.52.8c-.32.49-.64,1-1,1.44-.58.82-1.18,1.63-1.8,2.42a57.82,57.82,0,0,1-3.89,4.48c-.29.31-.59.6-.88.9l-.15.14-.33.31c-.71.66-1.44,1.29-2.18,1.9a50.8,50.8,0,0,1-4.6,3.39c-.79.51-1.59,1-2.4,1.47l-.7.39c-.51.29-.46.26.16-.07a4.64,4.64,0,0,1-1.07.53c-.93.45-1.87.87-2.81,1.25q1.1-2.88,2.3-5.69,1.48-3.48,3.12-6.86a4.9,4.9,0,0,0,.24-.52c2.54-5.23,5.3-10.29,8.23-15.21.27-.46.55-.92.83-1.38l.78-1.29c.6-1,1.2-1.91,1.81-2.86q1.88-2.93,3.8-5.79c2.68-4,5.43-7.84,8.23-11.68,1.78-2.44,2-6.49-.11-8.8-2-2.15-5.39-2.48-7.3.13-5.24,7.19-10.36,14.58-15.1,22.3l.18-1.43a137.06,137.06,0,0,1,5.15-23.42c1-3.05-1.27-6.93-3.77-7.53-3-.72-5.22,1.28-6.25,4.55a144.77,144.77,0,0,0-6.35,48.15c-.55,1.18-1.09,2.36-1.62,3.55a152.88,152.88,0,0,0-9.91,30.44l-.08-.11c-.25-.33-.48-.68-.73-1h0c-.83-1.4-1.64-2.79-2.35-4.29-.31-.66-.6-1.32-.87-2-.12-.29-.25-.58-.37-.89s-.13-.45-.16-.54a44.34,44.34,0,0,1-1.27-4.72c-.17-.8-.32-1.61-.44-2.42a2,2,0,0,1,0-.24c0-.36-.08-.71-.11-1.06a45.4,45.4,0,0,1-.16-4.95c0-.45,0-.9.05-1.35a5.34,5.34,0,0,0,0-.55,19.94,19.94,0,0,1,.35-2.25c.5-3.19-1-6.85-3.78-7.53a5.24,5.24,0,0,0-6.24,4.55c-2.64,16.57,3,33.49,14,43.61-.26,2.62-.46,5.25-.57,7.89a108.44,108.44,0,0,0,2.86,29.83c.76,3.12,3.78,5.29,6.41,4.2a6.63,6.63,0,0,0,3.49-7.73q-.75-3.06-1.29-6.16c-.18-1-.34-2-.49-3.08h0c-.08-.69-.16-1.39-.23-2.09a107.14,107.14,0,0,1-.53-11,28,28,0,0,0,17.06-5.4,7.1,7.1,0,0,0,1.75-8.55c-1.56-2.82-4.61-3.89-7.08-2.11-.61.44-1.22.85-1.85,1.23l-.57.32-.53.27a22.89,22.89,0,0,1-4,1.44l-.82.2c1.17-.31-.16,0-.35.05q-.95.12-1.89.18l-.92,0c0-.27.06-.54.1-.81.53-4,1.25-8.05,2.14-12,.26-1.12.53-2.24.81-3.35,16-3.34,30.34-15.81,38.45-32.65C1166.23,793.3,1165.36,789.14,1162.9,787.64Zm-39.51,82.79c0,.29.12,1.06,0,0Z" transform="translate(0.73 -0.18)"/>
    <path class="cls-3" d="M723,1056.53a2.53,2.53,0,0,0-3.57,1.48c-.24.54-.49,1.06-.75,1.58l-.29.53-.45.74a25.45,25.45,0,0,1-2.16,2.93l-.3.34-.49.5c-.45.44-.91.86-1.39,1.25-.2.17-.41.34-.63.5-.06-.27-.13-.54-.19-.8v0a4.34,4.34,0,0,0-.26-1.09c-.22-1-.42-2-.61-3.07v0c0-.1,0-.25,0-.29-.05-.31-.1-.61-.14-.92q-.16-1.11-.3-2.22v0a2.46,2.46,0,0,0,.32-.65,116,116,0,0,0,6.08-30c.11-1.68-.55-3.51-2.09-3.8a2.77,2.77,0,0,0-3.14,2.53,114.14,114.14,0,0,1-1.95,14.77c-.15.75-.31,1.51-.48,2.26-.22-2.85-.48-5.7-.87-8.53a79.46,79.46,0,0,0-2.7-12.45,51.87,51.87,0,0,0,8.5-26.9,2.92,2.92,0,0,0-2.83-3c-1.57.21-2.42,1.61-2.5,3.42,0,.13,0,.27,0,.4s0,.52-.05.78c0,.51-.09,1-.15,1.51-.12,1.09-.28,2.17-.47,3.25s-.42,2.13-.68,3.19c-.08.32-.16.64-.25,1l0,.09,0,.09c-.15.52-.31,1-.48,1.54a47.23,47.23,0,0,1-2.39,5.92c-.23.47-.47.93-.71,1.4l0,.06-.05.1-.29.49a66.7,66.7,0,0,0-9.53-16,2.38,2.38,0,0,0-3.77.34,3.8,3.8,0,0,0,.28,4.54c.42.52.84,1,1.24,1.58l.2.26.06.09c.24.32.47.65.71,1,.79,1.14,1.55,2.33,2.28,3.54a67.86,67.86,0,0,1,3.88,7.66l.1.23a1.22,1.22,0,0,0,.07.17l.41,1c.27.7.53,1.4.77,2.12q.72,2.07,1.32,4.2c.34,1.25.65,2.52.93,3.8-.43-.25-.86-.51-1.28-.79s-.85-.57-1.27-.87l-.53-.39-.32-.25c-.77-.63-1.52-1.29-2.25-2s-1.44-1.46-2.11-2.25c-.35-.4-.7-.82-1-1.25l-.28-.35-.37-.52a38.46,38.46,0,0,1-3.36-5.75,2.41,2.41,0,0,0-3.71-.84,3.76,3.76,0,0,0-.69,4.48,37,37,0,0,0,18.4,18.3c.48,4.22.75,8.49,1.08,12.74-.31-.32-.61-.66-.91-1s-.75-.9-1.11-1.36l-.12-.16-.17-.24c-.2-.27-.39-.55-.58-.83a35.63,35.63,0,0,1-2-3.34,2.42,2.42,0,0,0-3.71-.83,3.75,3.75,0,0,0-.7,4.47,35.4,35.4,0,0,0,10.08,12c.15,1.23.32,2.46.52,3.68l-.64-.1c-.44-.08-.88-.18-1.31-.3s-.87-.24-1.3-.39a4.93,4.93,0,0,1-.73-.27c.67.36-.12-.06-.25-.13a19,19,0,0,1-2.53-1.39c-.42-.27-.83-.57-1.24-.87l0,0-.1-.09c-.19-.15-.37-.31-.55-.47a23.09,23.09,0,0,1-2.19-2.23c-.18-.22-.36-.43-.53-.66a1.31,1.31,0,0,0-.17-.18,13.81,13.81,0,0,1-.85-1.3,24.55,24.55,0,0,1-1.54-2.92,2.41,2.41,0,0,0-3.71-.84,3.78,3.78,0,0,0-.7,4.48c3.83,8.53,11.76,14.05,19.76,14.22.12.47.25.93.39,1.4,1.8,6.15,4.68,12,8.93,16.09a2.39,2.39,0,0,0,3.76-.34,3.76,3.76,0,0,0-.28-4.54,26.47,26.47,0,0,1-2.42-2.74h0l-.21-.3c-.19-.26-.37-.53-.55-.81-.35-.55-.69-1.11-1-1.69a37.73,37.73,0,0,1-1.68-3.44h0l-.1-.24a27.23,27.23,0,0,0,9.32-11.6A3.58,3.58,0,0,0,723,1056.53Z" transform="translate(0.73 -0.18)"/>
  </g>
  <g>
    <path class="cls-4" d="M600.62,711.52a92.84,92.84,0,0,0-49,41.31l-38.37.15,32.79,11.58c0,.1-.08.21-.13.32l.31.17L528.6,795.14,558,770.41a91.22,91.22,0,0,0,31.65,5.64,93.71,93.71,0,0,0,32.3-5.78,92.41,92.41,0,0,0,54.69-53.36,90.7,90.7,0,0,0-43.74-11.17A93.81,93.81,0,0,0,600.62,711.52Z" transform="translate(0.73 -0.18)"/>
    <path class="cls-4" d="M504.54,247.84a61.84,61.84,0,0,0-32.63,27.51l-25.55.1,21.84,7.71-.09.22.21.11-11.75,20,19.6-16.47a60.7,60.7,0,0,0,21.08,3.76A62.42,62.42,0,0,0,518.76,287a61.61,61.61,0,0,0,36.43-35.54A60.46,60.46,0,0,0,526.05,244,62.42,62.42,0,0,0,504.54,247.84Z" transform="translate(0.73 -0.18)"/>
    <path class="cls-4" d="M205.85,431.29a39,39,0,0,0-20.57,17.35l-16.12.07,13.77,4.86-.05.14.13.07-7.41,12.64L188,456a38.33,38.33,0,0,0,13.3,2.37A39.34,39.34,0,0,0,214.83,456a38.85,38.85,0,0,0,23-22.41,38.14,38.14,0,0,0-18.38-4.7A39.3,39.3,0,0,0,205.85,431.29Z" transform="translate(0.73 -0.18)"/>
    <path class="cls-4" d="M942.18,308.1a58.44,58.44,0,0,0-30.82,26l-24.14.1,20.64,7.28a1.8,1.8,0,0,0-.08.21l.19.1-11.1,18.93,18.52-15.56a57.38,57.38,0,0,0,19.91,3.55,59.13,59.13,0,0,0,20.32-3.63A58.12,58.12,0,0,0,990,311.49a57,57,0,0,0-27.51-7A58.92,58.92,0,0,0,942.18,308.1Z" transform="translate(0.73 -0.18)"/>
    <path class="cls-4" d="M605.53,561.22a67.62,67.62,0,0,0,44.35-15l26.19,10.18L656.79,539.7l.18-.19-.17-.2,20-15.77-26.63,9a66.87,66.87,0,0,0-20.07-12.32,68.37,68.37,0,0,0-23.55-4.72,67.35,67.35,0,0,0-51.44,21.71A66.64,66.64,0,0,0,582,556.5,68.37,68.37,0,0,0,605.53,561.22Z" transform="translate(0.73 -0.18)"/>
    <path class="cls-4" d="M160.29,557.2a92.39,92.39,0,0,0-61.87,16.23L63.68,557.05l24.7,24.58-.26.24.21.28L59.55,601.74l37.14-9.67a91.86,91.86,0,0,0,26.19,18.72,93.59,93.59,0,0,0,31.65,8.68,92,92,0,0,0,72.18-24.67A91.19,91.19,0,0,0,192,565.88,93.81,93.81,0,0,0,160.29,557.2Z" transform="translate(0.73 -0.18)"/>
    <path class="cls-4" d="M244.4,712.22a33.37,33.37,0,0,0-17.61,14.84l-13.78.05,11.78,4.16,0,.12.11.06-6.34,10.81,10.57-8.88a33,33,0,0,0,11.38,2,33.61,33.61,0,0,0,11.6-2.08,33.19,33.19,0,0,0,19.65-19.18,32.59,32.59,0,0,0-15.71-4A33.62,33.62,0,0,0,244.4,712.22Z" transform="translate(0.73 -0.18)"/>
    <path class="cls-4" d="M921.66,166.89A55.19,55.19,0,0,0,941,134.15l21.41-7.64H941.79v-.21l-.2,0,4-20.29L934,125.59a53.69,53.69,0,0,0-18.79,3.09,55.68,55.68,0,0,0-37.06,50.19,53.81,53.81,0,0,0,26.63-2.38A55.75,55.75,0,0,0,921.66,166.89Z" transform="translate(0.73 -0.18)"/>
    <path class="cls-4" d="M1068.23,388.35a23,23,0,0,0-12.14,10.24l-9.51,0,8.13,2.87,0,.08.08.05-4.38,7.45,7.3-6.13a22.48,22.48,0,0,0,7.84,1.4,23.28,23.28,0,0,0,8-1.43,22.9,22.9,0,0,0,13.56-13.23,22.55,22.55,0,0,0-10.85-2.77A23.11,23.11,0,0,0,1068.23,388.35Z" transform="translate(0.73 -0.18)"/>
    <path class="cls-4" d="M122,241.6a49.81,49.81,0,0,0-26.3,22.17l-20.6.09,17.61,6.21-.07.18.16.09-9.47,16.15,15.8-13.28a49,49,0,0,0,17,3,50.23,50.23,0,0,0,17.35-3.1,49.61,49.61,0,0,0,29.36-28.65,48.8,48.8,0,0,0-23.49-6A50.19,50.19,0,0,0,122,241.6Z" transform="translate(0.73 -0.18)"/>
  </g>
  <g>
    <path class="cls-5" d="M244.75,324.14c-14.69,0-26.6,6.4-26.6,14.3s11.91,14.29,26.6,14.29,26.59-6.4,26.59-14.29S259.44,324.14,244.75,324.14Z" transform="translate(0.73 -0.18)"/>
    <path class="cls-6" d="M699.49,339c-14.69,0-26.6,6.39-26.6,14.29s11.91,14.29,26.6,14.29,26.6-6.4,26.6-14.29S714.18,339,699.49,339Z" transform="translate(0.73 -0.18)"/>
    <path class="cls-7" d="M324.43,467.89c-31.5,0-57,13.72-57,30.65s25.53,30.64,57,30.64,57-13.72,57-30.64S355.93,467.89,324.43,467.89Z" transform="translate(0.73 -0.18)"/>
    <path class="cls-8" d="M814.31,462.67c-24.72,0-44.76,10.77-44.76,24.05s20,24,44.76,24,44.75-10.77,44.75-24S839,462.67,814.31,462.67Z" transform="translate(0.73 -0.18)"/>
    <path class="cls-9" d="M1032.58,162.53c-24.57,0-44.49,10.7-44.49,23.91s19.92,23.91,44.49,23.91,44.49-10.71,44.49-23.91S1057.15,162.53,1032.58,162.53Z" transform="translate(0.73 -0.18)"/>
    <path class="cls-10" d="M376.47,180.81c-7.71,0-14,3.36-14,7.5s6.24,7.5,14,7.5,14-3.36,14-7.5S384.18,180.81,376.47,180.81Z" transform="translate(0.73 -0.18)"/>
    <path class="cls-11" d="M915.15,678.84c-14.84,0-26.87,7.78-26.87,17.38s12,17.39,26.87,17.39S942,705.82,942,696.22,930,678.84,915.15,678.84Z" transform="translate(0.73 -0.18)"/>
    <path class="cls-12" d="M353.15,753.05c-17.87,0-32.35,7.78-32.35,17.38s14.48,17.39,32.35,17.39S385.5,780,385.5,770.43,371,753.05,353.15,753.05Z" transform="translate(0.73 -0.18)"/>
    <path class="cls-13" d="M133.72,86.81C113.44,86.81,97,95.64,97,106.54s16.44,19.74,36.72,19.74,36.72-8.84,36.72-19.74S154,86.81,133.72,86.81Z" transform="translate(0.73 -0.18)"/>
    <path class="cls-14" d="M722.2,106.6c-19.56,0-35.42,8.52-35.42,19s15.86,19,35.42,19,35.42-8.53,35.42-19S741.77,106.6,722.2,106.6Z" transform="translate(0.73 -0.18)"/>
  </g>
</svg>
