<?xml version="1.0" encoding="utf-8"?>
<?xml-stylesheet type="text/css" href="../style.css"?>
<svg id="Layer_1" data-name="Layer 1" xmlns="http://www.w3.org/2000/svg" viewBox="0 0 98.78 87.12">
  <path id="base" class="baseStyle" d="M48.67,91.14c-1.73.35-3.56.66-5.49.89a68.69,68.69,0,0,1-15.67.11c-3.91-1.4-4.93-4.15-3.7-8C5.84,77.73-.77,71.27.3,64.82c1.21-3.09,3.65-4.7,7.05-5.15-8-10-9.29-19-.11-26.2a13.7,13.7,0,0,1,4.48-.78,13.56,13.56,0,0,1,4,.56,15.39,15.39,0,0,1,4.74-18.59c3.44-2.54,8.59-2.55,15.19-.45A15.9,15.9,0,0,1,50.53,5.69C59,6.17,63.2,13.53,63.45,14c.7-.32,7.51-3.28,13.66.33,5.77,3.4,8.52,11.16,6,18.59,1.29-.13,7.6-.66,11.56,3.41,7.47,7.56-2.49,22.9-2.49,22.9.85.2,4.28,1.1,5.82,4.15a8.85,8.85,0,0,1,.45,5.48c-1.15,5.42-10.64,11.22-24,15.12a5.31,5.31,0,0,1,.89,4.59A5,5,0,0,1,73.3,91a8,8,0,0,1-4.25,1.24C65.88,92.36,58.45,92,48.67,91.14Z" transform="translate(-0.06 -5.54)"/>
  <g id="happy">
    <path class="btnStyle" d="M29.78,63.37h-1.5V51.5H24.74V63.37h-1.5V39.43h1.5V50.1h3.54V39.43h1.5Z" transform="translate(-0.06 -5.54)"/>
    <path class="btnStyle" d="M42.45,63.37H41l-.63-4.52H36.64L36,63.37H34.47l4-25Zm-2.34-5.88L38.5,46.25,36.85,57.49Z" transform="translate(-0.06 -5.54)"/>
    <path class="btnStyle" d="M48.72,53.43v9.94H47.21V39.08a7.27,7.27,0,0,1,1.51,14.35Zm0-12.57v11a5.74,5.74,0,0,0,0-11Z" transform="translate(-0.06 -5.54)"/>
    <path class="btnStyle" d="M60.93,53.43v9.94h-1.5V39.08a7.27,7.27,0,0,1,1.5,14.35Zm0-12.57v11a5.73,5.73,0,0,0,0-11Z" transform="translate(-0.06 -5.54)"/>
    <path class="btnStyle" d="M77.8,39.43,74.62,51.85V63.37H73.11V51.85L69.92,39.43H71.5l2.35,10,2.38-10Z" transform="translate(-0.06 -5.54)"/>
  </g>
  <g id="sad">
    <path class="btnStyle" d="M37.21,63.46,36.76,62c1.78-.35,2.55-2.56,2.55-4.17a18.48,18.48,0,0,0-1.64-6.26,20.6,20.6,0,0,1-1.79-6.93c0-2.28,1.16-5.32,3.68-5.78L40,40.32c-1.78.35-2.55,2.55-2.55,4.2a19.61,19.61,0,0,0,1.68,6.37,19.94,19.94,0,0,1,1.75,6.79C40.89,60,39.73,63,37.21,63.46Z" transform="translate(-0.06 -5.54)"/>
    <path class="btnStyle" d="M52.33,63.14h-1.5l-.63-4.52H46.52l-.66,4.52H44.35l4-25ZM50,57.26,48.38,46,46.73,57.26Z" transform="translate(-0.06 -5.54)"/>
    <path class="btnStyle" d="M57.09,63.7V38.64a13.29,13.29,0,0,1,0,25.06ZM58.6,41.09V61.25a11.72,11.72,0,0,0,0-20.16Z" transform="translate(-0.06 -5.54)"/>
  </g>
  <g id="angry">
    <path class="btnStyle" d="M29.15,64.86H27.64L27,60.34H23.34l-.67,4.52h-1.5l4-25ZM26.8,59,25.19,47.74,23.55,59Z" transform="translate(-0.06 -5.54)"/>
    <path class="btnStyle" d="M40.87,65.46,35.41,48.9v16h-1.5V40.32l5.46,16.24V40.92h1.5Z" transform="translate(-0.06 -5.54)"/>
    <path class="btnStyle" d="M54.94,65.42a13.34,13.34,0,0,1-8.85-12.53A13.51,13.51,0,0,1,54,40.53L54.7,42a12,12,0,0,0-7,10.92A11.69,11.69,0,0,0,53.44,63V56h1.5Z" transform="translate(-0.06 -5.54)"/>
    <path class="btnStyle" d="M67.65,64.86H66l-4-11.52a5.74,5.74,0,0,0,0-11V64.86h-1.5V40.57A7.27,7.27,0,0,1,63.9,54.18Z" transform="translate(-0.06 -5.54)"/>
    <path class="btnStyle" d="M79.16,40.92,76,53.34V64.86H74.47V53.34L71.29,40.92h1.57l2.35,10,2.38-10Z" transform="translate(-0.06 -5.54)"/>
  </g>
  <g id="jokey">
    <path class="btnStyle" d="M25.37,58.73a8.12,8.12,0,0,1-3.54,6.69L21,64.12a6.51,6.51,0,0,0,2.87-5.39V40.92h1.51Z" transform="translate(-0.06 -5.54)"/>
    <path class="btnStyle" d="M36.18,65.14C31.56,65.14,31,56,31,52.89s.59-12.25,5.21-12.25,5.22,9.13,5.22,12.25S40.8,65.14,36.18,65.14Zm0-23c-3.25,0-3.67,8.68-3.67,10.75s.42,10.74,3.67,10.74S39.86,55,39.86,52.89,39.44,42.14,36.18,42.14Z" transform="translate(-0.06 -5.54)"/>
    <path class="btnStyle" d="M48.54,64.86H47V40.92h1.51Zm6,0H52.88L48.57,52.29l3.92-11.37h1.58L50.15,52.29Z" transform="translate(-0.06 -5.54)"/>
    <path class="btnStyle" d="M64.25,64.86h-5V40.92h5v1.36H60.72v9.31h3.53V53H60.72V63.5h3.53Z" transform="translate(-0.06 -5.54)"/>
    <path class="btnStyle" d="M76.19,40.92,73,53.34V64.86H71.5V53.34L68.31,40.92h1.58l2.34,10,2.38-10Z" transform="translate(-0.06 -5.54)"/>
  </g>
  <g id="start">
    <path class="btnStyle" d="M25.29,65.17l-.45-1.43c1.78-.35,2.55-2.56,2.55-4.17a18.48,18.48,0,0,0-1.64-6.26A20.6,20.6,0,0,1,24,46.38c0-2.28,1.16-5.32,3.68-5.78L28.09,42c-1.78.35-2.55,2.55-2.55,4.2a19.61,19.61,0,0,0,1.68,6.37A19.94,19.94,0,0,1,29,59.4C29,61.67,27.81,64.72,25.29,65.17Z" transform="translate(-0.06 -5.54)"/>
    <path class="btnStyle" d="M38.84,42.28H36.42V64.86h-1.5V42.28H32.5V40.92h6.34Z" transform="translate(-0.06 -5.54)"/>
    <path class="btnStyle" d="M49.27,64.86H47.76l-.63-4.52H43.46l-.67,4.52h-1.5l4-25ZM46.92,59,45.31,47.74,43.67,59Z" transform="translate(-0.06 -5.54)"/>
    <path class="btnStyle" d="M61.17,64.86H59.56l-4-11.52a5.74,5.74,0,0,0,0-11V64.86H54V40.57a7.27,7.27,0,0,1,3.39,13.61Z" transform="translate(-0.06 -5.54)"/>
    <path class="btnStyle" d="M71.31,42.28H68.9V64.86H67.39V42.28H65V40.92h6.33Z" transform="translate(-0.06 -5.54)"/>
  </g>
  <g id="restart">
    <path class="btnStyle" d="M22.58,64.75H21L17,53.23a5.74,5.74,0,0,0,0-11V64.75H15.44V40.45a7.28,7.28,0,0,1,3.4,13.62Z" transform="translate(-0.06 -5.54)"/>
    <path class="btnStyle" d="M33,64.75h-5v-24h5v1.37H29.44v9.31H33v1.4H29.44v10.5H33Z" transform="translate(-0.06 -5.54)"/>
    <path class="btnStyle" d="M38.85,65.06l-.45-1.44c1.79-.34,2.56-2.55,2.56-4.16a18.56,18.56,0,0,0-1.65-6.27,20.6,20.6,0,0,1-1.79-6.93c0-2.27,1.16-5.32,3.68-5.77l.46,1.43c-1.79.35-2.56,2.56-2.56,4.2a19.61,19.61,0,0,0,1.68,6.37,19.83,19.83,0,0,1,1.75,6.8C42.53,61.56,41.38,64.61,38.85,65.06Z" transform="translate(-0.06 -5.54)"/>
    <path class="btnStyle" d="M52.4,42.17H50V64.75h-1.5V42.17H46.06V40.8H52.4Z" transform="translate(-0.06 -5.54)"/>
    <path class="btnStyle" d="M62.83,64.75h-1.5l-.63-4.52H57l-.67,4.52h-1.5l4-25Zm-2.34-5.88L58.88,47.63,57.23,58.87Z" transform="translate(-0.06 -5.54)"/>
    <path class="btnStyle" d="M74.73,64.75H73.12l-4-11.52a5.74,5.74,0,0,0,0-11V64.75h-1.5V40.45A7.28,7.28,0,0,1,71,54.07Z" transform="translate(-0.06 -5.54)"/>
    <path class="btnStyle" d="M84.88,42.17H82.46V64.75H81V42.17H78.54V40.8h6.34Z" transform="translate(-0.06 -5.54)"/>
  </g>
  <g id="drinkCoffee">
    <path class="btnStyle" d="M22.3,65.17a13.61,13.61,0,0,1,0-24.75L23,41.89a12,12,0,0,0,0,21.84Z" transform="translate(-0.06 -5.54)"/>
    <path class="btnStyle" d="M30.91,65c-4.62,0-5.21-9.14-5.21-12.26s.59-12.25,5.21-12.25,5.22,9.14,5.22,12.25S35.53,65,30.91,65Zm0-23c-3.25,0-3.67,8.68-3.67,10.74s.42,10.75,3.67,10.75,3.68-8.68,3.68-10.75S34.17,42,30.91,42Z" transform="translate(-0.06 -5.54)"/>
    <path class="btnStyle" d="M46.8,52.88H43.27V64.75H41.76v-24h5v1.37H43.27v9.31H46.8Z" transform="translate(-0.06 -5.54)"/>
    <path class="btnStyle" d="M57.62,52.88H54.08V64.75h-1.5v-24h5v1.37H54.08v9.31h3.54Z" transform="translate(-0.06 -5.54)"/>
    <path class="btnStyle" d="M68.43,64.75h-5v-24h5v1.37H64.89v9.31h3.54v1.4H64.89v10.5h3.54Z" transform="translate(-0.06 -5.54)"/>
    <path class="btnStyle" d="M79.24,64.75h-5v-24h5v1.37H75.71v9.31h3.53v1.4H75.71v10.5h3.53Z" transform="translate(-0.06 -5.54)"/>
  </g>
  <g id="drinkBeer">
    <path class="btnStyle" d="M28.28,64.6V40a7.3,7.3,0,0,1,6.62,7.25A7.22,7.22,0,0,1,33.08,52a7.38,7.38,0,0,1,2.31,5.32A7.28,7.28,0,0,1,28.28,64.6Zm2.35-12.46a5.81,5.81,0,0,0,2.73-4.9,5.74,5.74,0,0,0-3.57-5.32v20.9a5.75,5.75,0,0,0,.84-10.68Z" transform="translate(-0.06 -5.54)"/>
    <path class="btnStyle" d="M45.71,64.29h-5v-24h5v1.37H42.18V51h3.53v1.4H42.18v10.5h3.53Z" transform="translate(-0.06 -5.54)"/>
    <path class="btnStyle" d="M56.53,64.29h-5v-24h5v1.37H53V51h3.54v1.4H53v10.5h3.54Z" transform="translate(-0.06 -5.54)"/>
    <path class="btnStyle" d="M69.44,64.29H67.83l-4-11.52a5.74,5.74,0,0,0,0-11V64.29H62.3V40a7.28,7.28,0,0,1,3.4,13.62Z" transform="translate(-0.06 -5.54)"/>
  </g>
  <g id="eatFood">
    <path class="btnStyle" d="M16.09,63.25H11.77V42.74h4.32v1.17h-3v8h3v1.2h-3v9h3Z" transform="translate(-0.06 -5.54)"/>
    <path class="btnStyle" d="M26.5,63.25H25.21l-.54-3.86H21.52L21,63.25H19.66l3.45-21.41Zm-2-5-1.38-9.63L21.7,58.22Z" transform="translate(-0.06 -5.54)"/>
    <path class="btnStyle" d="M34.09,43.91H32V63.25H30.73V43.91H28.66V42.74h5.43Z" transform="translate(-0.06 -5.54)"/>
    <path class="btnStyle" d="M47.92,53.09h-3V63.25H43.6V42.74h4.32v1.17h-3v8h3Z" transform="translate(-0.06 -5.54)"/>
    <path class="btnStyle" d="M56.74,63.5c-4,0-4.47-7.83-4.47-10.5s.51-10.5,4.47-10.5,4.47,7.83,4.47,10.5S60.7,63.5,56.74,63.5Zm0-19.71c-2.79,0-3.15,7.44-3.15,9.21s.36,9.21,3.15,9.21,3.15-7.44,3.15-9.21S59.53,43.79,56.74,43.79Z" transform="translate(-0.06 -5.54)"/>
    <path class="btnStyle" d="M69.91,63.5c-4,0-4.47-7.83-4.47-10.5S66,42.5,69.91,42.5s4.47,7.83,4.47,10.5S73.87,63.5,69.91,63.5Zm0-19.71c-2.79,0-3.15,7.44-3.15,9.21s.36,9.21,3.15,9.21,3.15-7.44,3.15-9.21S72.7,43.79,69.91,43.79Z" transform="translate(-0.06 -5.54)"/>
    <path class="btnStyle" d="M79.21,63.74V42.26a11.39,11.39,0,0,1,0,21.48ZM80.5,44.36V61.63a10,10,0,0,0,0-17.27Z" transform="translate(-0.06 -5.54)"/>
  </g>
  <g id="compliment">
    <path class="btnStyle" d="M13,63.9a9.71,9.71,0,0,1,0-17.67l.47,1.05a8.58,8.58,0,0,0,0,15.59Z" transform="translate(-0.06 -5.54)"/>
    <path class="btnStyle" d="M19.16,63.8c-3.3,0-3.73-6.52-3.73-8.75s.43-8.75,3.73-8.75,3.72,6.53,3.72,8.75S22.46,63.8,19.16,63.8Zm0-16.42c-2.33,0-2.63,6.2-2.63,7.67s.3,7.67,2.63,7.67,2.62-6.19,2.62-7.67S21.48,47.38,19.16,47.38Z" transform="translate(-0.06 -5.54)"/>
    <path class="btnStyle" d="M34.71,63.6H33.63V52.2l-2.82,8.55L28,52.2V63.6H26.91V46.08l3.9,11.6,3.9-11.6Z" transform="translate(-0.06 -5.54)"/>
    <path class="btnStyle" d="M40.26,56.5v7.1H39.18V46.25A5.2,5.2,0,0,1,40.26,56.5Zm0-9v7.85a4.1,4.1,0,0,0,0-7.85Z" transform="translate(-0.06 -5.54)"/>
    <path class="btnStyle" d="M51.51,63.6h-3.6V46.5H49V62.62h2.53Z" transform="translate(-0.06 -5.54)"/>
    <path class="btnStyle" d="M55.88,63.6H54.81V46.5h1.07Z" transform="translate(-0.06 -5.54)"/>
    <path class="btnStyle" d="M68.18,63.6H67.11V52.2l-2.83,8.55L61.46,52.2V63.6H60.38V46.08l3.9,11.6,3.9-11.6Z" transform="translate(-0.06 -5.54)"/>
    <path class="btnStyle" d="M76.26,63.6h-3.6V46.5h3.6v1H73.73v6.65h2.53v1H73.73v7.49h2.53Z" transform="translate(-0.06 -5.54)"/>
    <path class="btnStyle" d="M85.36,64,81.46,52.2V63.6H80.38V46.08l3.9,11.6V46.5h1.08Z" transform="translate(-0.06 -5.54)"/>
    <path class="btnStyle" d="M93.28,47.48H91.56V63.6H90.48V47.48H88.76v-1h4.52Z" transform="translate(-0.06 -5.54)"/>
  </g>
  <g id="reset">
    <path class="btnStyle" d="M34.54,64.2H32.93l-4-11.51a5.74,5.74,0,0,0,0-11V64.2H27.4V39.91a7.28,7.28,0,0,1,3.39,13.62Z" transform="translate(-0.06 -5.54)"/>
    <path class="btnStyle" d="M44.93,64.2h-5V40.26h5v1.37H41.4v9.31h3.53v1.4H41.4v10.5h3.53Z" transform="translate(-0.06 -5.54)"/>
    <path class="btnStyle" d="M50.81,64.52l-.45-1.44c1.78-.35,2.55-2.55,2.55-4.16a18.53,18.53,0,0,0-1.64-6.27,20.6,20.6,0,0,1-1.79-6.93c0-2.27,1.16-5.32,3.68-5.77l.45,1.43c-1.78.35-2.55,2.56-2.55,4.2,0,2,.84,4.13,1.67,6.37a19.85,19.85,0,0,1,1.76,6.79C54.49,61,53.33,64.06,50.81,64.52Z" transform="translate(-0.06 -5.54)"/>
    <path class="btnStyle" d="M64.6,64.2h-5V40.26h5v1.37H61.07v9.31H64.6v1.4H61.07v10.5H64.6Z" transform="translate(-0.06 -5.54)"/>
    <path class="btnStyle" d="M75.17,41.63H72.75V64.2h-1.5V41.63H68.83V40.26h6.34Z" transform="translate(-0.06 -5.54)"/>
  </g>
</svg>
