<?xml version="1.0" encoding="utf-8"?>
<?xml-stylesheet type="text/css" href="../style.css"?>
<svg id="tamogachi" xmlns="http://www.w3.org/2000/svg" viewBox="0 0 800 800">
  <rect id="border" class="cls-1" width="800" height="800"/>
  <g id="head">
    <path class="cls-2" d="M314.27,313.36c-4.86-4-55.77-47-47.73-105.81,3.7-27.06,18.21-45.11,25.7-54.21,28.84-35,76-54.09,121-49s86.72,34.28,107,74.88c7.16,14.38,11.81,30.38,10.72,46.41-1.58,23.43-14.67,41-20.3,48.69-2,2.76-10.3,14.15-20.9,23.11-1.5,1.27-6.37,5.3-13.24,11.33-3.2,2.8-5.8,5.13-7.55,6.71" transform="translate(0 -1)"/>
    <path class="cls-3" d="M314.72,312.91a140.66,140.66,0,0,1-19.41-19.78c-11.08-13.51-20.12-29-25-45.82a94.75,94.75,0,0,1,3.7-64.1,112.3,112.3,0,0,1,14.1-23.66,143,143,0,0,1,19.33-20.93,140.16,140.16,0,0,1,59.77-30.72,132.87,132.87,0,0,1,66.4,1.09,140.11,140.11,0,0,1,56.93,31.94c16.91,15.62,30.5,35.77,36.78,58,3.57,12.67,4.3,25.93,1.16,38.77a91.56,91.56,0,0,1-12.56,28,174,174,0,0,1-12.53,16.92,123.55,123.55,0,0,1-12.27,12.79c-3.14,2.79-6.41,5.42-9.6,8.15q-6.56,5.63-13,11.41c-.6.55.29,1.43.89.89q6.87-6.21,13.9-12.22c3.23-2.76,6.56-5.42,9.69-8.29a140.4,140.4,0,0,0,18.47-21.16,123.18,123.18,0,0,0,13.07-21.58,76.37,76.37,0,0,0,7.11-35.2c-.64-13.3-4.8-26.24-10.67-38.12a132.85,132.85,0,0,0-18.39-27.7,142.14,142.14,0,0,0-53.07-38.46,133.13,133.13,0,0,0-65.89-9.44,142.07,142.07,0,0,0-63.47,23.43,139.53,139.53,0,0,0-40.3,42,96.8,96.8,0,0,0-14,63.52c2.5,18.65,10.43,36.2,21.14,51.54a154.67,154.67,0,0,0,24.32,27.41c.81.71,1.63,1.42,2.46,2.1.62.5,1.51-.37.89-.89Z" transform="translate(0 -1)"/>
  </g>
  <g id="body">
    <path class="cls-4" d="M464.79,364.75a279.64,279.64,0,0,0,29.78,21.39A74.35,74.35,0,0,0,511,393.68c3.23,1,14.39,1.22,16.41,3.18a275.3,275.3,0,0,1-37.64-45.36c-9.79-14.77-16-32.1-27.88-45-10.74-11.68-22-23.45-35.38-32.16-12.33-8-26.48-12.88-41.32-11.76-39.18,2.93-62.9,32.79-78.33,65.46-6.9,14.6-7.45,17.2-16.19,29.42-15.08,21.09-33.5,34-47.06,41.65a136.57,136.57,0,0,0,55-27.51,133.34,133.34,0,0,0,22.42-24c3,17.1,14.38,84.06,8.59,127.13a96.2,96.2,0,0,1-5.13,22.29c-8.93,24.12-26.49,42.67-31,46.91,2.93-1.8,9.89-2.91,12.58-4.16,2-.93,4.22-1,14.75-8.82,30.18-22.36,38-34.7,55.54-39,20.45-5,40,4.3,45.41,6.88,8.66,4.14,13.21,8.39,19.26,13.07,10.53,8.16,26.52,18.32,50.11,26.65.34-.21.68-.4,1.05-.59.15-.41.27-.83.39-1.25-27.07-23.9-39.65-60.72-40-95.93-1.3-31,.83-62.24-4.36-92.93A110.87,110.87,0,0,0,464.79,364.75Z" transform="translate(0 -1)"/>
    <path class="cls-3" d="M464.34,365.19a278.53,278.53,0,0,0,27.11,19.72,87,87,0,0,0,14.29,7.54,36.9,36.9,0,0,0,6.21,2.1c1.48.29,3,.45,4.5.62,2.08.24,4.17.45,6.24.8,1.34.23,3.26.39,4.32,1.33.59.53,1.46-.31.88-.88a275.58,275.58,0,0,1-30.8-35.54,193.51,193.51,0,0,1-12.17-18.64c-3.51-6.23-6.72-12.62-10.28-18.81a98.55,98.55,0,0,0-11.95-17c-5.07-5.6-10.29-11.09-15.74-16.32-10.67-10.23-22.67-19.61-36.74-24.6-24.36-8.64-51.29-.89-70.46,15.52a118,118,0,0,0-22.66,27c-6.49,10.32-11.31,21.39-16.61,32.33A125.63,125.63,0,0,1,279,370.73a146.68,146.68,0,0,1-29.4,24.09q-3.1,1.95-6.3,3.75a.63.63,0,0,0,.49,1.15A134.51,134.51,0,0,0,321.59,348l-1.14-.15q2.43,13.79,4.39,27.64c2,14.36,3.66,28.78,4.7,43.25a323,323,0,0,1,.54,45.4,148.53,148.53,0,0,1-2.94,21.83,97.43,97.43,0,0,1-9.81,25.32,136.77,136.77,0,0,1-22.81,30.88c-.47.47-.94.94-1.43,1.4a.63.63,0,0,0,.76,1c3.14-1.84,7-2.33,10.47-3.38a45.3,45.3,0,0,0,4.32-1.67,41,41,0,0,0,6.08-3.39c4.18-2.73,8.15-5.76,12.1-8.8,6.91-5.31,13.6-10.88,20.26-16.5a161.41,161.41,0,0,1,14.67-11.54,47.26,47.26,0,0,1,14.3-6.52c9.57-2.47,19.65-1.85,29.15.6a87.86,87.86,0,0,1,18.19,7c7.45,3.83,13.59,9.4,20.29,14.33a180.08,180.08,0,0,0,45.79,24c1,.35,1.49.74,2.38.29s1.07-.9,1.38-2a.61.61,0,0,0-.16-.6c-17.82-15.81-29.47-37.38-35.29-60.31a159.23,159.23,0,0,1-4.53-35.18c-.4-14.69-.47-29.38-.69-44.07-.24-16.4-1-32.83-3.7-49l-1,.61a113.58,113.58,0,0,0,16.52,16.87c.62.51,1.51-.37.89-.88a113.64,113.64,0,0,1-16.53-16.87c-.43-.55-1.13.07-1,.6,4.95,29.57,3.17,59.63,4.21,89.45.21,6.09.35,12.15,1,18.21a148.69,148.69,0,0,0,2.86,17.18A134.72,134.72,0,0,0,467.89,506a111.09,111.09,0,0,0,24.29,31.21l-.16-.61c-.43,1.55-1.12,1.25-2.47.76s-2.52-.92-3.77-1.41q-3.87-1.49-7.67-3.12-6.51-2.82-12.81-6.12a164.47,164.47,0,0,1-19.57-12c-6.46-4.65-12.35-10.12-19.3-14.07A87.8,87.8,0,0,0,408.66,493c-14.65-4.43-30.93-4.54-44.46,3.26a99.5,99.5,0,0,0-13.7,10c-6.13,5.09-12.16,10.29-18.39,15.27-4.22,3.37-8.5,6.68-12.86,9.86a81.42,81.42,0,0,1-8.89,5.83c-4,2.15-8.34,3.13-12.66,4.42a20.59,20.59,0,0,0-4.48,1.77l.76,1a131.14,131.14,0,0,0,21.26-27,111.2,111.2,0,0,0,11.12-23.77,116.08,116.08,0,0,0,4.43-23.23c1.58-15.11,1.29-30.4.4-45.54-.88-14.88-2.44-29.72-4.42-44.49Q324.7,365,322,349.71l-.39-2.22c-.1-.59-.86-.54-1.14-.15A134.2,134.2,0,0,1,258.36,394a142.51,142.51,0,0,1-14.88,4.52l.49,1.14c21.74-12.35,40.48-29.68,53.5-51.14,5.8-9.56,9.64-20.19,14.95-30a138.59,138.59,0,0,1,20.5-29.22,85,85,0,0,1,28-20.17c12.16-5.24,26.11-7.51,39.2-5.06,14.72,2.75,27.63,10.83,38.85,20.46a221.79,221.79,0,0,1,16.35,15.81c5,5.24,9.81,10.47,13.81,16.51C477,328.77,482.65,342.06,490.7,354a276.67,276.67,0,0,0,28.37,35.32q3.88,4.1,7.94,8l.88-.88c-1.92-1.71-5.43-1.78-7.85-2.08-3.38-.43-6.82-.57-10.07-1.66-10.71-3.61-20.11-10-29.24-16.51q-8-5.67-15.5-11.86C464.61,363.8,463.72,364.68,464.34,365.19Z" transform="translate(0 -1)"/>
  </g>
  <g id="headDesign">
    <path d="M524,189.65c-13.23-11.24-58.56-47-124-48.27,0,0-45.78-3.75-97.14,23.35a224.62,224.62,0,0,0-21.56,13.21c-3.1,2.18-5.61,4.08-7.34,5.42a132.94,132.94,0,0,1,11.24-19.81,138.27,138.27,0,0,1,107.85-59.16,134.93,134.93,0,0,1,20.75.74,136.3,136.3,0,0,1,42.9,12.69,142,142,0,0,1,46.2,36.23A120.53,120.53,0,0,1,524,189.65Z" transform="translate(0 -1)"/>
  </g>
  <g id="headDesign-2">
    <path class="cls-3" d="M524.89,247.89a177.65,177.65,0,0,0-31.64-27,183,183,0,0,0-35.89-18.47c-45.52-17.06-89.51-8.28-98.14-6.42a182.16,182.16,0,0,0-89.43,48.61L286,195l24.62,18.8,16.05-35.46,23.23,19.41,16.51-28.28L385.2,192,404,168.29l14.21,24.46,23.39-19.11,17.58,28.74L483,186.32l10.24,33.94,26.14-16.51Z" transform="translate(0 -1)"/>
    <path class="cls-3" d="M525.33,247.45A177.86,177.86,0,0,0,481,212.66a162.74,162.74,0,0,0-69.75-20.75,187.72,187.72,0,0,0-49.4,2.88,178.63,178.63,0,0,0-54.74,20.6,184,184,0,0,0-35.29,26.38c-.81.78-1.62,1.56-2.42,2.35l1,.61L286.6,195.2l-.92.38L307.21,212l3.08,2.35a.62.62,0,0,0,.85-.22L325.23,183l2-4.34-1,.13,20.34,17,2.9,2.42a.63.63,0,0,0,1-.12l14.46-24.77,2.05-3.51-1,.12,16.48,19.7,2.32,2.77a.63.63,0,0,0,.89,0l16.49-20.78,2.31-2.91-1-.13L415.9,190l1.78,3.07a.63.63,0,0,0,1,.13l20.52-16.76,2.87-2.35-1-.13,15.38,25.15,2.2,3.59a.64.64,0,0,0,.86.23l20.87-14.06,3-2-.91-.37,9,29.73,1.27,4.21a.63.63,0,0,0,.92.37l22.9-14.47,3.24-2-.94-.54,5.46,44.14c.1.79,1.35.8,1.25,0l-5.46-44.14a.64.64,0,0,0-.95-.54l-22.9,14.47-3.24,2,.92.37-9-29.72-1.27-4.21a.62.62,0,0,0-.92-.37l-20.87,14.05-3,2,.85.22-15.38-25.14-2.2-3.6a.63.63,0,0,0-1-.12L420.66,190l-2.88,2.35,1,.13L406.33,171,404.55,168a.64.64,0,0,0-1-.13l-16.49,20.79-2.31,2.91h.89l-16.48-19.7-2.33-2.77a.63.63,0,0,0-1,.12L351.4,194l-2,3.51,1-.12-20.34-17-2.89-2.42a.63.63,0,0,0-1,.13L312,209.19l-2,4.34.85-.23-21.53-16.45-3.08-2.35a.63.63,0,0,0-.92.37l-16.2,49.53a.63.63,0,0,0,1,.61,182.8,182.8,0,0,1,31.63-25,179.52,179.52,0,0,1,57.76-23.46,183.78,183.78,0,0,1,42.95-3.77,167.09,167.09,0,0,1,71.3,17.59,177.92,177.92,0,0,1,45.79,33q2.45,2.44,4.78,5C525,248.93,525.87,248,525.33,247.45Z" transform="translate(0 -1)"/>
  </g>
  <ellipse id="eyeLid" class="cls-5" cx="386.89" cy="331.16" rx="18.19" ry="25.53"/>
  <ellipse id="eye" class="cls-3" cx="387.08" cy="339.16" rx="15.71" ry="17.46"/>
  <g id="headDesign-3">
    <path d="M314.39,312.61c1.33-2.37,3.08-5.31,5.27-8.58a124.64,124.64,0,0,1,8.64-11.42,114.77,114.77,0,0,1,8.25-8.79,84.66,84.66,0,0,1,22.51-15.1,69.34,69.34,0,0,1,29.45-6.84,63.94,63.94,0,0,1,27.27,5.81,97.77,97.77,0,0,1,11.77,6.51c6.11,4,10.07,7.49,16,12.82,8,7.12,13.34,12.94,14.69,14.41,4.42,4.82,8,9.27,10.9,13q5.9-5.26,12-10.55,5.25-4.53,10.44-8.89c-7.56-13.17-22.43-34.47-48.5-50-9.66-5.75-24.8-14.53-46.32-16.06-17.62-1.24-31,3-38.75,5.51a127.66,127.66,0,0,0-42.33,23.74c-12,9.85-25.89,27.74-25.89,27.74A97.13,97.13,0,0,0,314.39,312.61Z" transform="translate(0 -1)"/>
  </g>
  <g id="headDesign-4">
    <path id="headDesign-4-2" data-name="headDesign-4" class="cls-6" d="M289.74,286.07c-7.22-9.52-15.7-25.55-19.95-40.13,31.8-32,70.45-49.08,115.11-53.08,40.77-2.59,78.53,7.46,112.81,32A155.5,155.5,0,0,1,525,249.27c-7.56,16.41-18.92,31.58-33.36,45.74-20-33.76-45.81-53.19-75.67-62.48-33.69-10.83-69.82,2.29-97.34,23C308.12,263.6,298.6,274,289.74,286.07Z" transform="translate(0 -1)"/>
    <circle id="circle1" cx="293.75" cy="250.45" r="13.07"/>
    <circle id="circle1-2" data-name="circle1" cx="327.34" cy="228.89" r="13.07"/>
    <circle id="circle1-3" data-name="circle1" cx="367.47" cy="213.87" r="13.07"/>
    <circle id="circle1-4" data-name="circle1" cx="408.06" cy="212.96" r="13.07"/>
    <circle id="circle1-5" data-name="circle1" cx="447.27" cy="226.71" r="13.07"/>
    <circle id="circle1-6" data-name="circle1" cx="480.29" cy="248.96" r="13.07"/>
  </g>
  <ellipse id="angryEye" class="cls-3" cx="380.48" cy="335.96" rx="11.44" ry="12.17"/>
  <g>
    <line id="starvedEyes" class="cls-7" x1="374.81" y1="311.75" x2="397.64" y2="352.5"/>
    <line id="starvedEyesTwo" class="cls-7" x1="398.92" y1="312.78" x2="376.08" y2="352.25"/>
  </g>
  <path id="eyeBrow" class="cls-7" d="M365.94,304.49c13.39-7.8,27.05-7.6,41-.31" transform="translate(0 -1)"/>
  <path id="mouth" class="cls-8" d="M358.6,396.17c20.08,6.25,40.27,5.48,60.53,0" transform="translate(0 -1)"/>
</svg>